ISO-10303-21;
HEADER;
/* Generated by software containing ST-Developer
 * from STEP Tools, Inc. (www.steptools.com) 
 */

FILE_DESCRIPTION(
/* description */ (''),
/* implementation_level */ '2;1');

FILE_NAME(
/* name */ 'Clip_v25.step',
/* time_stamp */ '2026-10-02T21:24:53+04:00',
/* author */ (''),
/* organization */ (''),
/* preprocessor_version */ 'ST-DEVELOPER v20.2',
/* originating_system */ 'Autodesk Translation Framework v15.15.0.0',
/* authorisation */ '');

FILE_SCHEMA (('AUTOMOTIVE_DESIGN { 1 0 10303 214 3 1 1 }'));
ENDSEC;

DATA;
#10=MECHANICAL_DESIGN_GEOMETRIC_PRESENTATION_REPRESENTATION('',(#13),#1137);
#11=SHAPE_REPRESENTATION_RELATIONSHIP('SRR','None',#1144,#12);
#12=ADVANCED_BREP_SHAPE_REPRESENTATION('',(#14),#1136);
#13=STYLED_ITEM('',(#1153),#14);
#14=MANIFOLD_SOLID_BREP('Clip_v25',#713);
#15=FACE_OUTER_BOUND('',#51,.T.);
#16=FACE_OUTER_BOUND('',#52,.T.);
#17=FACE_OUTER_BOUND('',#53,.T.);
#18=FACE_OUTER_BOUND('',#54,.T.);
#19=FACE_OUTER_BOUND('',#55,.T.);
#20=FACE_OUTER_BOUND('',#56,.T.);
#21=FACE_OUTER_BOUND('',#57,.T.);
#22=FACE_OUTER_BOUND('',#58,.T.);
#23=FACE_OUTER_BOUND('',#59,.T.);
#24=FACE_OUTER_BOUND('',#60,.T.);
#25=FACE_OUTER_BOUND('',#61,.T.);
#26=FACE_OUTER_BOUND('',#62,.T.);
#27=FACE_OUTER_BOUND('',#63,.T.);
#28=FACE_OUTER_BOUND('',#64,.T.);
#29=FACE_OUTER_BOUND('',#65,.T.);
#30=FACE_OUTER_BOUND('',#66,.T.);
#31=FACE_OUTER_BOUND('',#67,.T.);
#32=FACE_OUTER_BOUND('',#68,.T.);
#33=FACE_OUTER_BOUND('',#69,.T.);
#34=FACE_OUTER_BOUND('',#70,.T.);
#35=FACE_OUTER_BOUND('',#71,.T.);
#36=FACE_OUTER_BOUND('',#72,.T.);
#37=FACE_OUTER_BOUND('',#73,.T.);
#38=FACE_OUTER_BOUND('',#74,.T.);
#39=FACE_OUTER_BOUND('',#75,.T.);
#40=FACE_OUTER_BOUND('',#76,.T.);
#41=FACE_OUTER_BOUND('',#77,.T.);
#42=FACE_OUTER_BOUND('',#78,.T.);
#43=FACE_OUTER_BOUND('',#79,.T.);
#44=FACE_OUTER_BOUND('',#80,.T.);
#45=FACE_OUTER_BOUND('',#81,.T.);
#46=FACE_OUTER_BOUND('',#82,.T.);
#47=FACE_OUTER_BOUND('',#83,.T.);
#48=FACE_OUTER_BOUND('',#84,.T.);
#49=FACE_OUTER_BOUND('',#85,.T.);
#50=FACE_OUTER_BOUND('',#86,.T.);
#51=EDGE_LOOP('',(#445,#446,#447,#448,#449));
#52=EDGE_LOOP('',(#450,#451,#452,#453));
#53=EDGE_LOOP('',(#454,#455,#456,#457));
#54=EDGE_LOOP('',(#458,#459,#460,#461,#462));
#55=EDGE_LOOP('',(#463,#464,#465,#466));
#56=EDGE_LOOP('',(#467,#468,#469,#470));
#57=EDGE_LOOP('',(#471,#472,#473,#474));
#58=EDGE_LOOP('',(#475,#476,#477,#478));
#59=EDGE_LOOP('',(#479,#480,#481,#482));
#60=EDGE_LOOP('',(#483,#484,#485,#486));
#61=EDGE_LOOP('',(#487,#488,#489,#490,#491,#492,#493,#494,#495,#496,#497,
#498,#499,#500,#501,#502,#503,#504,#505,#506,#507,#508,#509,#510,#511,#512,
#513));
#62=EDGE_LOOP('',(#514,#515,#516,#517));
#63=EDGE_LOOP('',(#518,#519,#520,#521,#522,#523));
#64=EDGE_LOOP('',(#524,#525,#526,#527,#528,#529));
#65=EDGE_LOOP('',(#530,#531,#532,#533));
#66=EDGE_LOOP('',(#534,#535,#536,#537));
#67=EDGE_LOOP('',(#538,#539,#540,#541));
#68=EDGE_LOOP('',(#542,#543,#544,#545));
#69=EDGE_LOOP('',(#546,#547,#548,#549));
#70=EDGE_LOOP('',(#550,#551,#552,#553));
#71=EDGE_LOOP('',(#554,#555,#556,#557));
#72=EDGE_LOOP('',(#558,#559,#560,#561));
#73=EDGE_LOOP('',(#562,#563,#564,#565));
#74=EDGE_LOOP('',(#566,#567,#568,#569));
#75=EDGE_LOOP('',(#570,#571,#572,#573));
#76=EDGE_LOOP('',(#574,#575,#576,#577));
#77=EDGE_LOOP('',(#578,#579,#580,#581));
#78=EDGE_LOOP('',(#582,#583,#584,#585));
#79=EDGE_LOOP('',(#586,#587,#588,#589));
#80=EDGE_LOOP('',(#590,#591,#592,#593));
#81=EDGE_LOOP('',(#594,#595,#596,#597));
#82=EDGE_LOOP('',(#598,#599,#600,#601));
#83=EDGE_LOOP('',(#602,#603,#604,#605));
#84=EDGE_LOOP('',(#606,#607,#608,#609));
#85=EDGE_LOOP('',(#610,#611,#612,#613));
#86=EDGE_LOOP('',(#614,#615,#616,#617,#618,#619,#620,#621,#622,#623,#624,
#625,#626,#627,#628,#629,#630,#631,#632,#633,#634,#635,#636,#637,#638,#639,
#640));
#87=LINE('',#939,#185);
#88=LINE('',#941,#186);
#89=LINE('',#943,#187);
#90=LINE('',#945,#188);
#91=LINE('',#946,#189);
#92=LINE('',#949,#190);
#93=LINE('',#951,#191);
#94=LINE('',#952,#192);
#95=LINE('',#955,#193);
#96=LINE('',#956,#194);
#97=LINE('',#959,#195);
#98=LINE('',#961,#196);
#99=LINE('',#962,#197);
#100=LINE('',#965,#198);
#101=LINE('',#967,#199);
#102=LINE('',#968,#200);
#103=LINE('',#971,#201);
#104=LINE('',#973,#202);
#105=LINE('',#974,#203);
#106=LINE('',#977,#204);
#107=LINE('',#978,#205);
#108=LINE('',#981,#206);
#109=LINE('',#982,#207);
#110=LINE('',#985,#208);
#111=LINE('',#986,#209);
#112=LINE('',#989,#210);
#113=LINE('',#990,#211);
#114=LINE('',#994,#212);
#115=LINE('',#996,#213);
#116=LINE('',#997,#214);
#117=LINE('',#999,#215);
#118=LINE('',#1001,#216);
#119=LINE('',#1003,#217);
#120=LINE('',#1005,#218);
#121=LINE('',#1007,#219);
#122=LINE('',#1009,#220);
#123=LINE('',#1011,#221);
#124=LINE('',#1013,#222);
#125=LINE('',#1015,#223);
#126=LINE('',#1017,#224);
#127=LINE('',#1019,#225);
#128=LINE('',#1021,#226);
#129=LINE('',#1023,#227);
#130=LINE('',#1025,#228);
#131=LINE('',#1027,#229);
#132=LINE('',#1029,#230);
#133=LINE('',#1031,#231);
#134=LINE('',#1033,#232);
#135=LINE('',#1035,#233);
#136=LINE('',#1037,#234);
#137=LINE('',#1038,#235);
#138=LINE('',#1041,#236);
#139=LINE('',#1043,#237);
#140=LINE('',#1044,#238);
#141=LINE('',#1046,#239);
#142=LINE('',#1049,#240);
#143=LINE('',#1050,#241);
#144=LINE('',#1053,#242);
#145=LINE('',#1054,#243);
#146=LINE('',#1057,#244);
#147=LINE('',#1058,#245);
#148=LINE('',#1061,#246);
#149=LINE('',#1062,#247);
#150=LINE('',#1065,#248);
#151=LINE('',#1066,#249);
#152=LINE('',#1069,#250);
#153=LINE('',#1070,#251);
#154=LINE('',#1073,#252);
#155=LINE('',#1074,#253);
#156=LINE('',#1077,#254);
#157=LINE('',#1078,#255);
#158=LINE('',#1081,#256);
#159=LINE('',#1082,#257);
#160=LINE('',#1085,#258);
#161=LINE('',#1086,#259);
#162=LINE('',#1089,#260);
#163=LINE('',#1090,#261);
#164=LINE('',#1093,#262);
#165=LINE('',#1094,#263);
#166=LINE('',#1097,#264);
#167=LINE('',#1098,#265);
#168=LINE('',#1101,#266);
#169=LINE('',#1102,#267);
#170=LINE('',#1105,#268);
#171=LINE('',#1106,#269);
#172=LINE('',#1109,#270);
#173=LINE('',#1110,#271);
#174=LINE('',#1113,#272);
#175=LINE('',#1114,#273);
#176=LINE('',#1117,#274);
#177=LINE('',#1118,#275);
#178=LINE('',#1121,#276);
#179=LINE('',#1122,#277);
#180=LINE('',#1125,#278);
#181=LINE('',#1126,#279);
#182=LINE('',#1129,#280);
#183=LINE('',#1130,#281);
#184=LINE('',#1132,#282);
#185=VECTOR('',#767,10.);
#186=VECTOR('',#768,10.);
#187=VECTOR('',#769,10.);
#188=VECTOR('',#770,10.);
#189=VECTOR('',#771,10.);
#190=VECTOR('',#774,10.);
#191=VECTOR('',#775,10.);
#192=VECTOR('',#776,10.);
#193=VECTOR('',#779,10.);
#194=VECTOR('',#780,10.);
#195=VECTOR('',#783,10.);
#196=VECTOR('',#784,10.);
#197=VECTOR('',#785,10.);
#198=VECTOR('',#788,10.);
#199=VECTOR('',#789,10.);
#200=VECTOR('',#790,10.);
#201=VECTOR('',#793,10.);
#202=VECTOR('',#794,10.);
#203=VECTOR('',#795,10.);
#204=VECTOR('',#798,10.);
#205=VECTOR('',#799,10.);
#206=VECTOR('',#802,10.);
#207=VECTOR('',#803,10.);
#208=VECTOR('',#806,10.);
#209=VECTOR('',#807,10.);
#210=VECTOR('',#810,10.);
#211=VECTOR('',#811,10.);
#212=VECTOR('',#814,10.);
#213=VECTOR('',#815,10.);
#214=VECTOR('',#816,10.);
#215=VECTOR('',#817,10.);
#216=VECTOR('',#818,10.);
#217=VECTOR('',#819,10.);
#218=VECTOR('',#820,10.);
#219=VECTOR('',#821,10.);
#220=VECTOR('',#822,10.);
#221=VECTOR('',#823,10.);
#222=VECTOR('',#824,10.);
#223=VECTOR('',#825,10.);
#224=VECTOR('',#826,10.);
#225=VECTOR('',#827,10.);
#226=VECTOR('',#828,10.);
#227=VECTOR('',#829,10.);
#228=VECTOR('',#830,10.);
#229=VECTOR('',#831,10.);
#230=VECTOR('',#832,10.);
#231=VECTOR('',#833,10.);
#232=VECTOR('',#834,10.);
#233=VECTOR('',#835,10.);
#234=VECTOR('',#836,10.);
#235=VECTOR('',#837,10.);
#236=VECTOR('',#840,10.);
#237=VECTOR('',#841,10.);
#238=VECTOR('',#842,10.);
#239=VECTOR('',#845,10.);
#240=VECTOR('',#848,10.);
#241=VECTOR('',#849,10.);
#242=VECTOR('',#852,10.);
#243=VECTOR('',#853,10.);
#244=VECTOR('',#856,10.);
#245=VECTOR('',#857,10.);
#246=VECTOR('',#860,10.);
#247=VECTOR('',#861,10.);
#248=VECTOR('',#864,10.);
#249=VECTOR('',#865,10.);
#250=VECTOR('',#868,10.);
#251=VECTOR('',#869,10.);
#252=VECTOR('',#872,10.);
#253=VECTOR('',#873,10.);
#254=VECTOR('',#876,10.);
#255=VECTOR('',#877,10.);
#256=VECTOR('',#880,10.);
#257=VECTOR('',#881,10.);
#258=VECTOR('',#884,10.);
#259=VECTOR('',#885,10.);
#260=VECTOR('',#888,10.);
#261=VECTOR('',#889,10.);
#262=VECTOR('',#892,10.);
#263=VECTOR('',#893,10.);
#264=VECTOR('',#896,10.);
#265=VECTOR('',#897,10.);
#266=VECTOR('',#900,10.);
#267=VECTOR('',#901,10.);
#268=VECTOR('',#904,10.);
#269=VECTOR('',#905,10.);
#270=VECTOR('',#908,10.);
#271=VECTOR('',#909,10.);
#272=VECTOR('',#912,10.);
#273=VECTOR('',#913,10.);
#274=VECTOR('',#916,10.);
#275=VECTOR('',#917,10.);
#276=VECTOR('',#920,10.);
#277=VECTOR('',#921,10.);
#278=VECTOR('',#924,10.);
#279=VECTOR('',#925,10.);
#280=VECTOR('',#928,10.);
#281=VECTOR('',#929,10.);
#282=VECTOR('',#932,10.);
#283=VERTEX_POINT('',#937);
#284=VERTEX_POINT('',#938);
#285=VERTEX_POINT('',#940);
#286=VERTEX_POINT('',#942);
#287=VERTEX_POINT('',#944);
#288=VERTEX_POINT('',#948);
#289=VERTEX_POINT('',#950);
#290=VERTEX_POINT('',#954);
#291=VERTEX_POINT('',#958);
#292=VERTEX_POINT('',#960);
#293=VERTEX_POINT('',#964);
#294=VERTEX_POINT('',#966);
#295=VERTEX_POINT('',#970);
#296=VERTEX_POINT('',#972);
#297=VERTEX_POINT('',#976);
#298=VERTEX_POINT('',#980);
#299=VERTEX_POINT('',#984);
#300=VERTEX_POINT('',#988);
#301=VERTEX_POINT('',#992);
#302=VERTEX_POINT('',#993);
#303=VERTEX_POINT('',#995);
#304=VERTEX_POINT('',#998);
#305=VERTEX_POINT('',#1000);
#306=VERTEX_POINT('',#1002);
#307=VERTEX_POINT('',#1004);
#308=VERTEX_POINT('',#1006);
#309=VERTEX_POINT('',#1008);
#310=VERTEX_POINT('',#1010);
#311=VERTEX_POINT('',#1012);
#312=VERTEX_POINT('',#1014);
#313=VERTEX_POINT('',#1016);
#314=VERTEX_POINT('',#1018);
#315=VERTEX_POINT('',#1020);
#316=VERTEX_POINT('',#1022);
#317=VERTEX_POINT('',#1024);
#318=VERTEX_POINT('',#1026);
#319=VERTEX_POINT('',#1028);
#320=VERTEX_POINT('',#1030);
#321=VERTEX_POINT('',#1032);
#322=VERTEX_POINT('',#1034);
#323=VERTEX_POINT('',#1036);
#324=VERTEX_POINT('',#1040);
#325=VERTEX_POINT('',#1042);
#326=VERTEX_POINT('',#1048);
#327=VERTEX_POINT('',#1052);
#328=VERTEX_POINT('',#1056);
#329=VERTEX_POINT('',#1060);
#330=VERTEX_POINT('',#1064);
#331=VERTEX_POINT('',#1068);
#332=VERTEX_POINT('',#1072);
#333=VERTEX_POINT('',#1076);
#334=VERTEX_POINT('',#1080);
#335=VERTEX_POINT('',#1084);
#336=VERTEX_POINT('',#1088);
#337=VERTEX_POINT('',#1092);
#338=VERTEX_POINT('',#1096);
#339=VERTEX_POINT('',#1100);
#340=VERTEX_POINT('',#1104);
#341=VERTEX_POINT('',#1108);
#342=VERTEX_POINT('',#1112);
#343=VERTEX_POINT('',#1116);
#344=VERTEX_POINT('',#1120);
#345=VERTEX_POINT('',#1124);
#346=VERTEX_POINT('',#1128);
#347=EDGE_CURVE('',#283,#284,#87,.T.);
#348=EDGE_CURVE('',#285,#283,#88,.T.);
#349=EDGE_CURVE('',#286,#285,#89,.T.);
#350=EDGE_CURVE('',#287,#286,#90,.T.);
#351=EDGE_CURVE('',#284,#287,#91,.T.);
#352=EDGE_CURVE('',#286,#288,#92,.T.);
#353=EDGE_CURVE('',#285,#289,#93,.T.);
#354=EDGE_CURVE('',#289,#288,#94,.T.);
#355=EDGE_CURVE('',#283,#290,#95,.T.);
#356=EDGE_CURVE('',#290,#289,#96,.T.);
#357=EDGE_CURVE('',#291,#290,#97,.T.);
#358=EDGE_CURVE('',#292,#291,#98,.T.);
#359=EDGE_CURVE('',#288,#292,#99,.T.);
#360=EDGE_CURVE('',#293,#286,#100,.T.);
#361=EDGE_CURVE('',#294,#293,#101,.T.);
#362=EDGE_CURVE('',#294,#287,#102,.T.);
#363=EDGE_CURVE('',#292,#295,#103,.T.);
#364=EDGE_CURVE('',#296,#295,#104,.T.);
#365=EDGE_CURVE('',#288,#296,#105,.T.);
#366=EDGE_CURVE('',#297,#294,#106,.T.);
#367=EDGE_CURVE('',#297,#284,#107,.T.);
#368=EDGE_CURVE('',#291,#298,#108,.T.);
#369=EDGE_CURVE('',#295,#298,#109,.T.);
#370=EDGE_CURVE('',#299,#297,#110,.T.);
#371=EDGE_CURVE('',#299,#283,#111,.T.);
#372=EDGE_CURVE('',#290,#300,#112,.T.);
#373=EDGE_CURVE('',#298,#300,#113,.T.);
#374=EDGE_CURVE('',#301,#302,#114,.T.);
#375=EDGE_CURVE('',#302,#303,#115,.T.);
#376=EDGE_CURVE('',#303,#299,#116,.T.);
#377=EDGE_CURVE('',#293,#304,#117,.T.);
#378=EDGE_CURVE('',#304,#305,#118,.T.);
#379=EDGE_CURVE('',#305,#306,#119,.T.);
#380=EDGE_CURVE('',#306,#307,#120,.T.);
#381=EDGE_CURVE('',#307,#308,#121,.T.);
#382=EDGE_CURVE('',#308,#309,#122,.T.);
#383=EDGE_CURVE('',#309,#310,#123,.T.);
#384=EDGE_CURVE('',#310,#311,#124,.T.);
#385=EDGE_CURVE('',#311,#312,#125,.T.);
#386=EDGE_CURVE('',#312,#313,#126,.T.);
#387=EDGE_CURVE('',#313,#314,#127,.T.);
#388=EDGE_CURVE('',#314,#315,#128,.T.);
#389=EDGE_CURVE('',#315,#316,#129,.T.);
#390=EDGE_CURVE('',#316,#317,#130,.T.);
#391=EDGE_CURVE('',#317,#318,#131,.T.);
#392=EDGE_CURVE('',#318,#319,#132,.T.);
#393=EDGE_CURVE('',#319,#320,#133,.T.);
#394=EDGE_CURVE('',#320,#321,#134,.T.);
#395=EDGE_CURVE('',#321,#322,#135,.T.);
#396=EDGE_CURVE('',#322,#323,#136,.T.);
#397=EDGE_CURVE('',#323,#301,#137,.T.);
#398=EDGE_CURVE('',#324,#302,#138,.T.);
#399=EDGE_CURVE('',#325,#324,#139,.T.);
#400=EDGE_CURVE('',#303,#325,#140,.T.);
#401=EDGE_CURVE('',#300,#325,#141,.T.);
#402=EDGE_CURVE('',#326,#296,#142,.T.);
#403=EDGE_CURVE('',#304,#326,#143,.T.);
#404=EDGE_CURVE('',#327,#326,#144,.T.);
#405=EDGE_CURVE('',#305,#327,#145,.T.);
#406=EDGE_CURVE('',#328,#327,#146,.T.);
#407=EDGE_CURVE('',#306,#328,#147,.T.);
#408=EDGE_CURVE('',#329,#328,#148,.T.);
#409=EDGE_CURVE('',#307,#329,#149,.T.);
#410=EDGE_CURVE('',#330,#329,#150,.T.);
#411=EDGE_CURVE('',#308,#330,#151,.T.);
#412=EDGE_CURVE('',#331,#330,#152,.T.);
#413=EDGE_CURVE('',#309,#331,#153,.T.);
#414=EDGE_CURVE('',#332,#331,#154,.T.);
#415=EDGE_CURVE('',#310,#332,#155,.T.);
#416=EDGE_CURVE('',#333,#332,#156,.T.);
#417=EDGE_CURVE('',#311,#333,#157,.T.);
#418=EDGE_CURVE('',#334,#333,#158,.T.);
#419=EDGE_CURVE('',#312,#334,#159,.T.);
#420=EDGE_CURVE('',#335,#334,#160,.T.);
#421=EDGE_CURVE('',#313,#335,#161,.T.);
#422=EDGE_CURVE('',#336,#335,#162,.T.);
#423=EDGE_CURVE('',#314,#336,#163,.T.);
#424=EDGE_CURVE('',#337,#336,#164,.T.);
#425=EDGE_CURVE('',#315,#337,#165,.T.);
#426=EDGE_CURVE('',#338,#337,#166,.T.);
#427=EDGE_CURVE('',#316,#338,#167,.T.);
#428=EDGE_CURVE('',#339,#338,#168,.T.);
#429=EDGE_CURVE('',#317,#339,#169,.T.);
#430=EDGE_CURVE('',#340,#339,#170,.T.);
#431=EDGE_CURVE('',#318,#340,#171,.T.);
#432=EDGE_CURVE('',#341,#340,#172,.T.);
#433=EDGE_CURVE('',#319,#341,#173,.T.);
#434=EDGE_CURVE('',#342,#341,#174,.T.);
#435=EDGE_CURVE('',#320,#342,#175,.T.);
#436=EDGE_CURVE('',#343,#342,#176,.T.);
#437=EDGE_CURVE('',#321,#343,#177,.T.);
#438=EDGE_CURVE('',#344,#343,#178,.T.);
#439=EDGE_CURVE('',#322,#344,#179,.T.);
#440=EDGE_CURVE('',#345,#344,#180,.T.);
#441=EDGE_CURVE('',#323,#345,#181,.T.);
#442=EDGE_CURVE('',#346,#345,#182,.T.);
#443=EDGE_CURVE('',#301,#346,#183,.T.);
#444=EDGE_CURVE('',#324,#346,#184,.T.);
#445=ORIENTED_EDGE('',*,*,#347,.F.);
#446=ORIENTED_EDGE('',*,*,#348,.F.);
#447=ORIENTED_EDGE('',*,*,#349,.F.);
#448=ORIENTED_EDGE('',*,*,#350,.F.);
#449=ORIENTED_EDGE('',*,*,#351,.F.);
#450=ORIENTED_EDGE('',*,*,#352,.F.);
#451=ORIENTED_EDGE('',*,*,#349,.T.);
#452=ORIENTED_EDGE('',*,*,#353,.T.);
#453=ORIENTED_EDGE('',*,*,#354,.T.);
#454=ORIENTED_EDGE('',*,*,#353,.F.);
#455=ORIENTED_EDGE('',*,*,#348,.T.);
#456=ORIENTED_EDGE('',*,*,#355,.T.);
#457=ORIENTED_EDGE('',*,*,#356,.T.);
#458=ORIENTED_EDGE('',*,*,#357,.F.);
#459=ORIENTED_EDGE('',*,*,#358,.F.);
#460=ORIENTED_EDGE('',*,*,#359,.F.);
#461=ORIENTED_EDGE('',*,*,#354,.F.);
#462=ORIENTED_EDGE('',*,*,#356,.F.);
#463=ORIENTED_EDGE('',*,*,#350,.T.);
#464=ORIENTED_EDGE('',*,*,#360,.F.);
#465=ORIENTED_EDGE('',*,*,#361,.F.);
#466=ORIENTED_EDGE('',*,*,#362,.T.);
#467=ORIENTED_EDGE('',*,*,#359,.T.);
#468=ORIENTED_EDGE('',*,*,#363,.T.);
#469=ORIENTED_EDGE('',*,*,#364,.F.);
#470=ORIENTED_EDGE('',*,*,#365,.F.);
#471=ORIENTED_EDGE('',*,*,#351,.T.);
#472=ORIENTED_EDGE('',*,*,#362,.F.);
#473=ORIENTED_EDGE('',*,*,#366,.F.);
#474=ORIENTED_EDGE('',*,*,#367,.T.);
#475=ORIENTED_EDGE('',*,*,#358,.T.);
#476=ORIENTED_EDGE('',*,*,#368,.T.);
#477=ORIENTED_EDGE('',*,*,#369,.F.);
#478=ORIENTED_EDGE('',*,*,#363,.F.);
#479=ORIENTED_EDGE('',*,*,#347,.T.);
#480=ORIENTED_EDGE('',*,*,#367,.F.);
#481=ORIENTED_EDGE('',*,*,#370,.F.);
#482=ORIENTED_EDGE('',*,*,#371,.T.);
#483=ORIENTED_EDGE('',*,*,#357,.T.);
#484=ORIENTED_EDGE('',*,*,#372,.T.);
#485=ORIENTED_EDGE('',*,*,#373,.F.);
#486=ORIENTED_EDGE('',*,*,#368,.F.);
#487=ORIENTED_EDGE('',*,*,#374,.T.);
#488=ORIENTED_EDGE('',*,*,#375,.T.);
#489=ORIENTED_EDGE('',*,*,#376,.T.);
#490=ORIENTED_EDGE('',*,*,#370,.T.);
#491=ORIENTED_EDGE('',*,*,#366,.T.);
#492=ORIENTED_EDGE('',*,*,#361,.T.);
#493=ORIENTED_EDGE('',*,*,#377,.T.);
#494=ORIENTED_EDGE('',*,*,#378,.T.);
#495=ORIENTED_EDGE('',*,*,#379,.T.);
#496=ORIENTED_EDGE('',*,*,#380,.T.);
#497=ORIENTED_EDGE('',*,*,#381,.T.);
#498=ORIENTED_EDGE('',*,*,#382,.T.);
#499=ORIENTED_EDGE('',*,*,#383,.T.);
#500=ORIENTED_EDGE('',*,*,#384,.T.);
#501=ORIENTED_EDGE('',*,*,#385,.T.);
#502=ORIENTED_EDGE('',*,*,#386,.T.);
#503=ORIENTED_EDGE('',*,*,#387,.T.);
#504=ORIENTED_EDGE('',*,*,#388,.T.);
#505=ORIENTED_EDGE('',*,*,#389,.T.);
#506=ORIENTED_EDGE('',*,*,#390,.T.);
#507=ORIENTED_EDGE('',*,*,#391,.T.);
#508=ORIENTED_EDGE('',*,*,#392,.T.);
#509=ORIENTED_EDGE('',*,*,#393,.T.);
#510=ORIENTED_EDGE('',*,*,#394,.T.);
#511=ORIENTED_EDGE('',*,*,#395,.T.);
#512=ORIENTED_EDGE('',*,*,#396,.T.);
#513=ORIENTED_EDGE('',*,*,#397,.T.);
#514=ORIENTED_EDGE('',*,*,#398,.F.);
#515=ORIENTED_EDGE('',*,*,#399,.F.);
#516=ORIENTED_EDGE('',*,*,#400,.F.);
#517=ORIENTED_EDGE('',*,*,#375,.F.);
#518=ORIENTED_EDGE('',*,*,#400,.T.);
#519=ORIENTED_EDGE('',*,*,#401,.F.);
#520=ORIENTED_EDGE('',*,*,#372,.F.);
#521=ORIENTED_EDGE('',*,*,#355,.F.);
#522=ORIENTED_EDGE('',*,*,#371,.F.);
#523=ORIENTED_EDGE('',*,*,#376,.F.);
#524=ORIENTED_EDGE('',*,*,#360,.T.);
#525=ORIENTED_EDGE('',*,*,#352,.T.);
#526=ORIENTED_EDGE('',*,*,#365,.T.);
#527=ORIENTED_EDGE('',*,*,#402,.F.);
#528=ORIENTED_EDGE('',*,*,#403,.F.);
#529=ORIENTED_EDGE('',*,*,#377,.F.);
#530=ORIENTED_EDGE('',*,*,#403,.T.);
#531=ORIENTED_EDGE('',*,*,#404,.F.);
#532=ORIENTED_EDGE('',*,*,#405,.F.);
#533=ORIENTED_EDGE('',*,*,#378,.F.);
#534=ORIENTED_EDGE('',*,*,#405,.T.);
#535=ORIENTED_EDGE('',*,*,#406,.F.);
#536=ORIENTED_EDGE('',*,*,#407,.F.);
#537=ORIENTED_EDGE('',*,*,#379,.F.);
#538=ORIENTED_EDGE('',*,*,#407,.T.);
#539=ORIENTED_EDGE('',*,*,#408,.F.);
#540=ORIENTED_EDGE('',*,*,#409,.F.);
#541=ORIENTED_EDGE('',*,*,#380,.F.);
#542=ORIENTED_EDGE('',*,*,#409,.T.);
#543=ORIENTED_EDGE('',*,*,#410,.F.);
#544=ORIENTED_EDGE('',*,*,#411,.F.);
#545=ORIENTED_EDGE('',*,*,#381,.F.);
#546=ORIENTED_EDGE('',*,*,#411,.T.);
#547=ORIENTED_EDGE('',*,*,#412,.F.);
#548=ORIENTED_EDGE('',*,*,#413,.F.);
#549=ORIENTED_EDGE('',*,*,#382,.F.);
#550=ORIENTED_EDGE('',*,*,#413,.T.);
#551=ORIENTED_EDGE('',*,*,#414,.F.);
#552=ORIENTED_EDGE('',*,*,#415,.F.);
#553=ORIENTED_EDGE('',*,*,#383,.F.);
#554=ORIENTED_EDGE('',*,*,#415,.T.);
#555=ORIENTED_EDGE('',*,*,#416,.F.);
#556=ORIENTED_EDGE('',*,*,#417,.F.);
#557=ORIENTED_EDGE('',*,*,#384,.F.);
#558=ORIENTED_EDGE('',*,*,#417,.T.);
#559=ORIENTED_EDGE('',*,*,#418,.F.);
#560=ORIENTED_EDGE('',*,*,#419,.F.);
#561=ORIENTED_EDGE('',*,*,#385,.F.);
#562=ORIENTED_EDGE('',*,*,#419,.T.);
#563=ORIENTED_EDGE('',*,*,#420,.F.);
#564=ORIENTED_EDGE('',*,*,#421,.F.);
#565=ORIENTED_EDGE('',*,*,#386,.F.);
#566=ORIENTED_EDGE('',*,*,#421,.T.);
#567=ORIENTED_EDGE('',*,*,#422,.F.);
#568=ORIENTED_EDGE('',*,*,#423,.F.);
#569=ORIENTED_EDGE('',*,*,#387,.F.);
#570=ORIENTED_EDGE('',*,*,#423,.T.);
#571=ORIENTED_EDGE('',*,*,#424,.F.);
#572=ORIENTED_EDGE('',*,*,#425,.F.);
#573=ORIENTED_EDGE('',*,*,#388,.F.);
#574=ORIENTED_EDGE('',*,*,#425,.T.);
#575=ORIENTED_EDGE('',*,*,#426,.F.);
#576=ORIENTED_EDGE('',*,*,#427,.F.);
#577=ORIENTED_EDGE('',*,*,#389,.F.);
#578=ORIENTED_EDGE('',*,*,#427,.T.);
#579=ORIENTED_EDGE('',*,*,#428,.F.);
#580=ORIENTED_EDGE('',*,*,#429,.F.);
#581=ORIENTED_EDGE('',*,*,#390,.F.);
#582=ORIENTED_EDGE('',*,*,#429,.T.);
#583=ORIENTED_EDGE('',*,*,#430,.F.);
#584=ORIENTED_EDGE('',*,*,#431,.F.);
#585=ORIENTED_EDGE('',*,*,#391,.F.);
#586=ORIENTED_EDGE('',*,*,#431,.T.);
#587=ORIENTED_EDGE('',*,*,#432,.F.);
#588=ORIENTED_EDGE('',*,*,#433,.F.);
#589=ORIENTED_EDGE('',*,*,#392,.F.);
#590=ORIENTED_EDGE('',*,*,#433,.T.);
#591=ORIENTED_EDGE('',*,*,#434,.F.);
#592=ORIENTED_EDGE('',*,*,#435,.F.);
#593=ORIENTED_EDGE('',*,*,#393,.F.);
#594=ORIENTED_EDGE('',*,*,#435,.T.);
#595=ORIENTED_EDGE('',*,*,#436,.F.);
#596=ORIENTED_EDGE('',*,*,#437,.F.);
#597=ORIENTED_EDGE('',*,*,#394,.F.);
#598=ORIENTED_EDGE('',*,*,#437,.T.);
#599=ORIENTED_EDGE('',*,*,#438,.F.);
#600=ORIENTED_EDGE('',*,*,#439,.F.);
#601=ORIENTED_EDGE('',*,*,#395,.F.);
#602=ORIENTED_EDGE('',*,*,#439,.T.);
#603=ORIENTED_EDGE('',*,*,#440,.F.);
#604=ORIENTED_EDGE('',*,*,#441,.F.);
#605=ORIENTED_EDGE('',*,*,#396,.F.);
#606=ORIENTED_EDGE('',*,*,#441,.T.);
#607=ORIENTED_EDGE('',*,*,#442,.F.);
#608=ORIENTED_EDGE('',*,*,#443,.F.);
#609=ORIENTED_EDGE('',*,*,#397,.F.);
#610=ORIENTED_EDGE('',*,*,#443,.T.);
#611=ORIENTED_EDGE('',*,*,#444,.F.);
#612=ORIENTED_EDGE('',*,*,#398,.T.);
#613=ORIENTED_EDGE('',*,*,#374,.F.);
#614=ORIENTED_EDGE('',*,*,#444,.T.);
#615=ORIENTED_EDGE('',*,*,#442,.T.);
#616=ORIENTED_EDGE('',*,*,#440,.T.);
#617=ORIENTED_EDGE('',*,*,#438,.T.);
#618=ORIENTED_EDGE('',*,*,#436,.T.);
#619=ORIENTED_EDGE('',*,*,#434,.T.);
#620=ORIENTED_EDGE('',*,*,#432,.T.);
#621=ORIENTED_EDGE('',*,*,#430,.T.);
#622=ORIENTED_EDGE('',*,*,#428,.T.);
#623=ORIENTED_EDGE('',*,*,#426,.T.);
#624=ORIENTED_EDGE('',*,*,#424,.T.);
#625=ORIENTED_EDGE('',*,*,#422,.T.);
#626=ORIENTED_EDGE('',*,*,#420,.T.);
#627=ORIENTED_EDGE('',*,*,#418,.T.);
#628=ORIENTED_EDGE('',*,*,#416,.T.);
#629=ORIENTED_EDGE('',*,*,#414,.T.);
#630=ORIENTED_EDGE('',*,*,#412,.T.);
#631=ORIENTED_EDGE('',*,*,#410,.T.);
#632=ORIENTED_EDGE('',*,*,#408,.T.);
#633=ORIENTED_EDGE('',*,*,#406,.T.);
#634=ORIENTED_EDGE('',*,*,#404,.T.);
#635=ORIENTED_EDGE('',*,*,#402,.T.);
#636=ORIENTED_EDGE('',*,*,#364,.T.);
#637=ORIENTED_EDGE('',*,*,#369,.T.);
#638=ORIENTED_EDGE('',*,*,#373,.T.);
#639=ORIENTED_EDGE('',*,*,#401,.T.);
#640=ORIENTED_EDGE('',*,*,#399,.T.);
#641=PLANE('',#727);
#642=PLANE('',#728);
#643=PLANE('',#729);
#644=PLANE('',#730);
#645=PLANE('',#731);
#646=PLANE('',#732);
#647=PLANE('',#733);
#648=PLANE('',#734);
#649=PLANE('',#735);
#650=PLANE('',#736);
#651=PLANE('',#737);
#652=PLANE('',#738);
#653=PLANE('',#739);
#654=PLANE('',#740);
#655=PLANE('',#741);
#656=PLANE('',#742);
#657=PLANE('',#743);
#658=PLANE('',#744);
#659=PLANE('',#745);
#660=PLANE('',#746);
#661=PLANE('',#747);
#662=PLANE('',#748);
#663=PLANE('',#749);
#664=PLANE('',#750);
#665=PLANE('',#751);
#666=PLANE('',#752);
#667=PLANE('',#753);
#668=PLANE('',#754);
#669=PLANE('',#755);
#670=PLANE('',#756);
#671=PLANE('',#757);
#672=PLANE('',#758);
#673=PLANE('',#759);
#674=PLANE('',#760);
#675=PLANE('',#761);
#676=PLANE('',#762);
#677=ADVANCED_FACE('',(#15),#641,.F.);
#678=ADVANCED_FACE('',(#16),#642,.F.);
#679=ADVANCED_FACE('',(#17),#643,.F.);
#680=ADVANCED_FACE('',(#18),#644,.F.);
#681=ADVANCED_FACE('',(#19),#645,.T.);
#682=ADVANCED_FACE('',(#20),#646,.T.);
#683=ADVANCED_FACE('',(#21),#647,.T.);
#684=ADVANCED_FACE('',(#22),#648,.T.);
#685=ADVANCED_FACE('',(#23),#649,.T.);
#686=ADVANCED_FACE('',(#24),#650,.T.);
#687=ADVANCED_FACE('',(#25),#651,.T.);
#688=ADVANCED_FACE('',(#26),#652,.T.);
#689=ADVANCED_FACE('',(#27),#653,.T.);
#690=ADVANCED_FACE('',(#28),#654,.T.);
#691=ADVANCED_FACE('',(#29),#655,.T.);
#692=ADVANCED_FACE('',(#30),#656,.T.);
#693=ADVANCED_FACE('',(#31),#657,.T.);
#694=ADVANCED_FACE('',(#32),#658,.T.);
#695=ADVANCED_FACE('',(#33),#659,.T.);
#696=ADVANCED_FACE('',(#34),#660,.T.);
#697=ADVANCED_FACE('',(#35),#661,.T.);
#698=ADVANCED_FACE('',(#36),#662,.T.);
#699=ADVANCED_FACE('',(#37),#663,.T.);
#700=ADVANCED_FACE('',(#38),#664,.T.);
#701=ADVANCED_FACE('',(#39),#665,.T.);
#702=ADVANCED_FACE('',(#40),#666,.T.);
#703=ADVANCED_FACE('',(#41),#667,.T.);
#704=ADVANCED_FACE('',(#42),#668,.T.);
#705=ADVANCED_FACE('',(#43),#669,.T.);
#706=ADVANCED_FACE('',(#44),#670,.T.);
#707=ADVANCED_FACE('',(#45),#671,.T.);
#708=ADVANCED_FACE('',(#46),#672,.T.);
#709=ADVANCED_FACE('',(#47),#673,.T.);
#710=ADVANCED_FACE('',(#48),#674,.T.);
#711=ADVANCED_FACE('',(#49),#675,.T.);
#712=ADVANCED_FACE('',(#50),#676,.T.);
#713=CLOSED_SHELL('',(#677,#678,#679,#680,#681,#682,#683,#684,#685,#686,
#687,#688,#689,#690,#691,#692,#693,#694,#695,#696,#697,#698,#699,#700,#701,
#702,#703,#704,#705,#706,#707,#708,#709,#710,#711,#712));
#714=DERIVED_UNIT_ELEMENT(#716,1.);
#715=DERIVED_UNIT_ELEMENT(#1139,-3.);
#716=(
MASS_UNIT()
NAMED_UNIT(*)
SI_UNIT(.KILO.,.GRAM.)
);
#717=DERIVED_UNIT((#714,#715));
#718=MEASURE_REPRESENTATION_ITEM('density measure',
POSITIVE_RATIO_MEASURE(7850.),#717);
#719=PROPERTY_DEFINITION_REPRESENTATION(#724,#721);
#720=PROPERTY_DEFINITION_REPRESENTATION(#725,#722);
#721=REPRESENTATION('material name',(#723),#1136);
#722=REPRESENTATION('density',(#718),#1136);
#723=DESCRIPTIVE_REPRESENTATION_ITEM('Steel','Steel');
#724=PROPERTY_DEFINITION('material property','material name',#1146);
#725=PROPERTY_DEFINITION('material property','density of part',#1146);
#726=AXIS2_PLACEMENT_3D('',#935,#763,#764);
#727=AXIS2_PLACEMENT_3D('',#936,#765,#766);
#728=AXIS2_PLACEMENT_3D('',#947,#772,#773);
#729=AXIS2_PLACEMENT_3D('',#953,#777,#778);
#730=AXIS2_PLACEMENT_3D('',#957,#781,#782);
#731=AXIS2_PLACEMENT_3D('',#963,#786,#787);
#732=AXIS2_PLACEMENT_3D('',#969,#791,#792);
#733=AXIS2_PLACEMENT_3D('',#975,#796,#797);
#734=AXIS2_PLACEMENT_3D('',#979,#800,#801);
#735=AXIS2_PLACEMENT_3D('',#983,#804,#805);
#736=AXIS2_PLACEMENT_3D('',#987,#808,#809);
#737=AXIS2_PLACEMENT_3D('',#991,#812,#813);
#738=AXIS2_PLACEMENT_3D('',#1039,#838,#839);
#739=AXIS2_PLACEMENT_3D('',#1045,#843,#844);
#740=AXIS2_PLACEMENT_3D('',#1047,#846,#847);
#741=AXIS2_PLACEMENT_3D('',#1051,#850,#851);
#742=AXIS2_PLACEMENT_3D('',#1055,#854,#855);
#743=AXIS2_PLACEMENT_3D('',#1059,#858,#859);
#744=AXIS2_PLACEMENT_3D('',#1063,#862,#863);
#745=AXIS2_PLACEMENT_3D('',#1067,#866,#867);
#746=AXIS2_PLACEMENT_3D('',#1071,#870,#871);
#747=AXIS2_PLACEMENT_3D('',#1075,#874,#875);
#748=AXIS2_PLACEMENT_3D('',#1079,#878,#879);
#749=AXIS2_PLACEMENT_3D('',#1083,#882,#883);
#750=AXIS2_PLACEMENT_3D('',#1087,#886,#887);
#751=AXIS2_PLACEMENT_3D('',#1091,#890,#891);
#752=AXIS2_PLACEMENT_3D('',#1095,#894,#895);
#753=AXIS2_PLACEMENT_3D('',#1099,#898,#899);
#754=AXIS2_PLACEMENT_3D('',#1103,#902,#903);
#755=AXIS2_PLACEMENT_3D('',#1107,#906,#907);
#756=AXIS2_PLACEMENT_3D('',#1111,#910,#911);
#757=AXIS2_PLACEMENT_3D('',#1115,#914,#915);
#758=AXIS2_PLACEMENT_3D('',#1119,#918,#919);
#759=AXIS2_PLACEMENT_3D('',#1123,#922,#923);
#760=AXIS2_PLACEMENT_3D('',#1127,#926,#927);
#761=AXIS2_PLACEMENT_3D('',#1131,#930,#931);
#762=AXIS2_PLACEMENT_3D('',#1133,#933,#934);
#763=DIRECTION('axis',(0.,0.,1.));
#764=DIRECTION('refdir',(1.,0.,0.));
#765=DIRECTION('center_axis',(-5.35682609381638E-15,-2.17013906844699E-15,
-1.));
#766=DIRECTION('ref_axis',(-0.0696003262042793,0.99757495687906,-1.79196935068404E-15));
#767=DIRECTION('',(-0.0992945435686344,0.99505808554953,-1.62637491333298E-15));
#768=DIRECTION('',(-1.,-4.40203429263874E-14,5.37088232053892E-15));
#769=DIRECTION('',(-5.91193760612896E-15,-1.,1.33833036745924E-15));
#770=DIRECTION('',(-2.27866336910409E-12,-1.,2.16926291245184E-15));
#771=DIRECTION('',(1.,4.14668299697496E-14,-5.34312674492329E-15));
#772=DIRECTION('center_axis',(1.,-5.89805981832114E-15,-5.37088232053883E-15));
#773=DIRECTION('ref_axis',(5.89805981832114E-15,1.,-1.33833036745924E-15));
#774=DIRECTION('',(5.21804821573824E-15,2.15973072759112E-15,1.));
#775=DIRECTION('',(5.35682609381638E-15,2.17013906844699E-15,1.));
#776=DIRECTION('',(5.91193760612896E-15,1.,-1.33833036745924E-15));
#777=DIRECTION('center_axis',(4.40064651385796E-14,-1.,2.17099763592811E-15));
#778=DIRECTION('ref_axis',(1.,4.40203429263875E-14,-5.37088232053892E-15));
#779=DIRECTION('',(5.21804821573824E-15,2.15973072759112E-15,1.));
#780=DIRECTION('',(1.,4.40203429263874E-14,-5.37088232053892E-15));
#781=DIRECTION('center_axis',(5.35682609381638E-15,2.17013906844699E-15,
1.));
#782=DIRECTION('ref_axis',(0.0696003262042793,-0.99757495687906,1.79196935068404E-15));
#783=DIRECTION('',(0.0992945435686344,-0.99505808554953,1.62637491333298E-15));
#784=DIRECTION('',(-1.,-4.14668299697496E-14,5.34312674492329E-15));
#785=DIRECTION('',(2.27866336910409E-12,1.,-2.16926291245184E-15));
#786=DIRECTION('center_axis',(1.,-2.2786772468919E-12,-5.23210444245663E-15));
#787=DIRECTION('ref_axis',(2.2786772468919E-12,1.,-6.66528455571622E-13));
#788=DIRECTION('',(5.21804821573824E-15,2.15973072759112E-15,1.));
#789=DIRECTION('',(-2.27869112467971E-12,-1.,6.66526720848146E-13));
#790=DIRECTION('',(5.21804821573824E-15,2.15973072759112E-15,1.));
#791=DIRECTION('center_axis',(1.,-2.2786772468919E-12,-5.23210444245663E-15));
#792=DIRECTION('ref_axis',(2.2786772468919E-12,1.,-6.66528455571622E-13));
#793=DIRECTION('',(5.21804821573824E-15,2.15973072759112E-15,1.));
#794=DIRECTION('',(2.27869112467971E-12,1.,-6.66526720848146E-13));
#795=DIRECTION('',(5.21804821573824E-15,2.15973072759112E-15,1.));
#796=DIRECTION('center_axis',(-4.14668299697496E-14,1.,-2.16058929507225E-15));
#797=DIRECTION('ref_axis',(-1.,-4.14668299697496E-14,5.9259938328515E-15));
#798=DIRECTION('',(1.,4.14945855453652E-14,-5.95374940846713E-15));
#799=DIRECTION('',(5.21804821573824E-15,2.15973072759112E-15,1.));
#800=DIRECTION('center_axis',(-4.14668299697496E-14,1.,-2.16058929507225E-15));
#801=DIRECTION('ref_axis',(-1.,-4.14668299697496E-14,5.9259938328515E-15));
#802=DIRECTION('',(5.21804821573824E-15,2.15973072759112E-15,1.));
#803=DIRECTION('',(-1.,-4.14945855453652E-14,5.95374940846713E-15));
#804=DIRECTION('center_axis',(-0.99505808554953,-0.0992945435686344,5.43797766591147E-15));
#805=DIRECTION('ref_axis',(0.0992945435686344,-0.99505808554953,-1.67329160827042E-16));
#806=DIRECTION('',(-0.0992945435686344,0.99505808554953,1.67329160827042E-16));
#807=DIRECTION('',(5.21804821573824E-15,2.15973072759112E-15,1.));
#808=DIRECTION('center_axis',(-0.99505808554953,-0.0992945435686344,5.43797766591147E-15));
#809=DIRECTION('ref_axis',(0.0992945435686344,-0.99505808554953,-1.67329160827042E-16));
#810=DIRECTION('',(5.21804821573824E-15,2.15973072759112E-15,1.));
#811=DIRECTION('',(0.0992945435686344,-0.99505808554953,-1.67329160827042E-16));
#812=DIRECTION('center_axis',(-5.24580379135386E-15,-2.1614654510671E-15,
-1.));
#813=DIRECTION('ref_axis',(-0.0696003262042793,0.99757495687906,-1.79196935068404E-15));
#814=DIRECTION('',(-3.4555691641458E-15,1.,-3.96375520003831E-16));
#815=DIRECTION('',(1.,4.26464419334138E-14,-5.2598600180764E-15));
#816=DIRECTION('',(0.0995037190210009,-0.995037190209989,-1.69075148600358E-16));
#817=DIRECTION('',(1.,1.47104550762833E-14,-8.39624006264242E-15));
#818=DIRECTION('',(2.15105711021124E-15,-1.,-3.0965693471873E-16));
#819=DIRECTION('',(-1.,-4.26048085699904E-14,6.09252728654527E-15));
#820=DIRECTION('',(-0.73994007339596,0.672672793996295,-1.07272780393769E-15));
#821=DIRECTION('',(-0.15190098292466,0.988395715989564,2.91180617744759E-15));
#822=DIRECTION('',(0.00684966623535982,0.999976540761064,-6.1391487109863E-15));
#823=DIRECTION('',(-0.182041474136903,0.983290853051153,6.41215379347007E-16));
#824=DIRECTION('',(-0.363841344300389,0.931460936474357,7.36559264288692E-15));
#825=DIRECTION('',(-0.531703760894015,0.846930404845144,-2.98196444406187E-15));
#826=DIRECTION('',(-0.679716444853764,0.733474985664379,3.53066201157349E-15));
#827=DIRECTION('',(-0.803135834498859,0.59579596452462,9.93700280371973E-15));
#828=DIRECTION('',(-0.898429432730234,0.439117927673228,-6.74986633117451E-16));
#829=DIRECTION('',(-0.963175127398703,0.26887482954061,-2.12197764270672E-16));
#830=DIRECTION('',(-0.995894346422246,0.0905232056668758,5.62590658649598E-15));
#831=DIRECTION('',(-1.,-4.50056658607423E-14,5.67619365231084E-15));
#832=DIRECTION('',(-7.49400541621981E-15,-1.,1.09026491039455E-15));
#833=DIRECTION('',(1.,5.8189564278166E-14,-8.25746218456435E-15));
#834=DIRECTION('',(8.47932835057463E-15,-1.,5.94575591965364E-15));
#835=DIRECTION('',(-0.647648420095532,-0.761939317759467,2.23885239704851E-15));
#836=DIRECTION('',(1.26010313294955E-14,-1.,-1.4563091523394E-15));
#837=DIRECTION('',(-1.,-4.32986979603811E-14,5.67619365231084E-15));
#838=DIRECTION('center_axis',(-4.26464419334138E-14,1.,-2.16058929507225E-15));
#839=DIRECTION('ref_axis',(-1.,-4.2632564145606E-14,5.23210444246078E-15));
#840=DIRECTION('',(-5.21804821573824E-15,-2.15973072759112E-15,-1.));
#841=DIRECTION('',(-1.,-4.26464419334138E-14,5.2598600180764E-15));
#842=DIRECTION('',(5.21804821573824E-15,2.15973072759112E-15,1.));
#843=DIRECTION('center_axis',(0.995037190209989,0.0995037190210009,-5.41059862340319E-15));
#844=DIRECTION('ref_axis',(-0.0995037190210008,0.995037190209989,1.69075148600358E-16));
#845=DIRECTION('',(-0.0995037190210009,0.995037190209989,1.69075148600358E-16));
#846=DIRECTION('center_axis',(-1.46965772884755E-14,1.,-2.16232401854822E-15));
#847=DIRECTION('ref_axis',(-1.,-1.46965772884755E-14,8.39624006264242E-15));
#848=DIRECTION('',(-1.,-1.47104550762833E-14,8.39624006264242E-15));
#849=DIRECTION('',(5.21804821573824E-15,2.15973072759112E-15,1.));
#850=DIRECTION('center_axis',(1.,2.15105711021124E-15,-5.2321044424607E-15));
#851=DIRECTION('ref_axis',(-2.15105711021124E-15,1.,3.07922211242753E-16));
#852=DIRECTION('',(-2.15105711021124E-15,1.,3.0965693471873E-16));
#853=DIRECTION('',(5.21804821573824E-15,2.15973072759112E-15,1.));
#854=DIRECTION('center_axis',(4.26048085699904E-14,-1.,2.16058929507225E-15));
#855=DIRECTION('ref_axis',(1.,4.25909307821826E-14,-6.09252728654527E-15));
#856=DIRECTION('',(1.,4.26048085699904E-14,-6.09252728654527E-15));
#857=DIRECTION('',(5.21804821573824E-15,2.15973072759112E-15,1.));
#858=DIRECTION('center_axis',(-0.672672793996295,-0.73994007339596,5.12461817160384E-15));
#859=DIRECTION('ref_axis',(0.73994007339596,-0.672672793996295,1.07272780393769E-15));
#860=DIRECTION('',(0.73994007339596,-0.672672793996295,1.07272780393769E-15));
#861=DIRECTION('',(5.21804821573824E-15,2.15973072759112E-15,1.));
#862=DIRECTION('center_axis',(-0.988395715989564,-0.15190098292466,5.50509355230603E-15));
#863=DIRECTION('ref_axis',(0.15190098292466,-0.988395715989564,-2.91354090092357E-15));
#864=DIRECTION('',(0.15190098292466,-0.988395715989564,-2.91180617744759E-15));
#865=DIRECTION('',(5.21804821573824E-15,2.15973072759112E-15,1.));
#866=DIRECTION('center_axis',(-0.999976540761064,0.00684966623535979,5.21986274230932E-15));
#867=DIRECTION('ref_axis',(-0.00684966623535979,-0.999976540761064,6.14088343446228E-15));
#868=DIRECTION('',(-0.00684966623535982,-0.999976540761064,6.1391487109863E-15));
#869=DIRECTION('',(5.21804821573824E-15,2.15973072759112E-15,1.));
#870=DIRECTION('center_axis',(-0.983290853051153,-0.182041474136903,5.50409894586987E-15));
#871=DIRECTION('ref_axis',(0.182041474136903,-0.983290853051153,-6.41215379347007E-16));
#872=DIRECTION('',(0.182041474136903,-0.983290853051153,-6.41215379347007E-16));
#873=DIRECTION('',(5.21804821573824E-15,2.15973072759112E-15,1.));
#874=DIRECTION('center_axis',(-0.931460936474357,-0.363841344300389,5.64126399458534E-15));
#875=DIRECTION('ref_axis',(0.363841344300389,-0.931460936474357,-7.37253153679083E-15));
#876=DIRECTION('',(0.363841344300389,-0.931460936474357,-7.36559264288692E-15));
#877=DIRECTION('',(5.21804821573824E-15,2.15973072759112E-15,1.));
#878=DIRECTION('center_axis',(-0.846930404845144,-0.531703760894015,5.59105914133226E-15));
#879=DIRECTION('ref_axis',(0.531703760894015,-0.846930404845144,2.99584223186969E-15));
#880=DIRECTION('',(0.531703760894015,-0.846930404845144,2.98196444406187E-15));
#881=DIRECTION('',(5.21804821573824E-15,2.15973072759112E-15,1.));
#882=DIRECTION('center_axis',(-0.733474985664379,-0.679716444853764,5.2869333894523E-15));
#883=DIRECTION('ref_axis',(0.679716444853764,-0.733474985664379,-3.5445397993813E-15));
#884=DIRECTION('',(0.679716444853764,-0.733474985664379,-3.53066201157349E-15));
#885=DIRECTION('',(5.21804821573824E-15,2.15973072759112E-15,1.));
#886=DIRECTION('center_axis',(-0.59579596452462,-0.803135834498859,4.8585985614116E-15));
#887=DIRECTION('ref_axis',(0.803135834498859,-0.59579596452462,-9.93700280371973E-15));
#888=DIRECTION('',(0.803135834498859,-0.59579596452462,-9.93700280371973E-15));
#889=DIRECTION('',(5.21804821573824E-15,2.15973072759112E-15,1.));
#890=DIRECTION('center_axis',(-0.439117927673228,-0.898429432730234,4.22969932344356E-15));
#891=DIRECTION('ref_axis',(0.898429432730234,-0.439117927673228,7.0274220873308E-16));
#892=DIRECTION('',(0.898429432730234,-0.439117927673228,6.74986633117451E-16));
#893=DIRECTION('',(5.21804821573824E-15,2.15973072759112E-15,1.));
#894=DIRECTION('center_axis',(-0.26887482954061,-0.963175127398703,3.48543373933144E-15));
#895=DIRECTION('ref_axis',(0.963175127398703,-0.26887482954061,2.39953339886301E-16));
#896=DIRECTION('',(0.963175127398703,-0.26887482954061,2.12197764270672E-16));
#897=DIRECTION('',(5.21804821573824E-15,2.15973072759112E-15,1.));
#898=DIRECTION('center_axis',(-0.0905232056668759,-0.995894346422246,2.62941702428937E-15));
#899=DIRECTION('ref_axis',(0.995894346422246,-0.0905232056668758,-5.62590658649598E-15));
#900=DIRECTION('',(0.995894346422246,-0.0905232056668758,-5.62590658649598E-15));
#901=DIRECTION('',(5.21804821573824E-15,2.15973072759112E-15,1.));
#902=DIRECTION('center_axis',(4.50056658607423E-14,-1.,2.16058929507225E-15));
#903=DIRECTION('ref_axis',(1.,4.49917880729345E-14,-5.64843807669521E-15));
#904=DIRECTION('',(1.,4.50056658607423E-14,-5.67619365231084E-15));
#905=DIRECTION('',(5.21804821573824E-15,2.15973072759112E-15,1.));
#906=DIRECTION('center_axis',(1.,-7.46624984060418E-15,-5.23210444246069E-15));
#907=DIRECTION('ref_axis',(7.48012762841199E-15,1.,-1.09026491039455E-15));
#908=DIRECTION('',(7.49400541621981E-15,1.,-1.09026491039455E-15));
#909=DIRECTION('',(5.21804821573824E-15,2.15973072759112E-15,1.));
#910=DIRECTION('center_axis',(-5.8189564278166E-14,1.,-2.16232401854823E-15));
#911=DIRECTION('ref_axis',(-1.,-5.81756864903582E-14,8.25746218456435E-15));
#912=DIRECTION('',(-1.,-5.8189564278166E-14,8.25746218456435E-15));
#913=DIRECTION('',(5.21804821573824E-15,2.15973072759112E-15,1.));
#914=DIRECTION('center_axis',(1.,8.49320613838245E-15,-5.23210444246072E-15));
#915=DIRECTION('ref_axis',(-8.49320613838245E-15,1.,-5.94749064312961E-15));
#916=DIRECTION('',(-8.47932835057463E-15,1.,-5.94575591965364E-15));
#917=DIRECTION('',(5.21804821573824E-15,2.15973072759112E-15,1.));
#918=DIRECTION('center_axis',(0.761939317759467,-0.647648420095532,-2.56360962125792E-15));
#919=DIRECTION('ref_axis',(0.647648420095532,0.761939317759467,-2.23885239704851E-15));
#920=DIRECTION('',(0.647648420095532,0.761939317759467,-2.23885239704851E-15));
#921=DIRECTION('',(5.21804821573824E-15,2.15973072759112E-15,1.));
#922=DIRECTION('center_axis',(1.,1.26010313294955E-14,-5.23210444246072E-15));
#923=DIRECTION('ref_axis',(-1.26149091173033E-14,1.,1.45457442886342E-15));
#924=DIRECTION('',(-1.26010313294955E-14,1.,1.4563091523394E-15));
#925=DIRECTION('',(5.21804821573824E-15,2.15973072759112E-15,1.));
#926=DIRECTION('center_axis',(4.32848201725733E-14,-1.,2.16058929507225E-15));
#927=DIRECTION('ref_axis',(1.,4.32848201725733E-14,-5.64843807669521E-15));
#928=DIRECTION('',(1.,4.32986979603811E-14,-5.67619365231084E-15));
#929=DIRECTION('',(5.21804821573824E-15,2.15973072759112E-15,1.));
#930=DIRECTION('center_axis',(-1.,-3.46944695195361E-15,5.23210444246071E-15));
#931=DIRECTION('ref_axis',(3.46944695195361E-15,-1.,3.98110243479807E-16));
#932=DIRECTION('',(3.4555691641458E-15,-1.,3.96375520003831E-16));
#933=DIRECTION('center_axis',(5.21804821573824E-15,2.15973072759112E-15,
1.));
#934=DIRECTION('ref_axis',(0.0696003262042793,-0.99757495687906,1.79196935068404E-15));
#935=CARTESIAN_POINT('',(0.,0.,0.));
#936=CARTESIAN_POINT('Origin',(125.10001128238,0.911408103735525,1.60000000000003));
#937=CARTESIAN_POINT('',(121.418,-1.45499999999984,1.60000000000005));
#938=CARTESIAN_POINT('',(120.948,3.25500000000027,1.60000000000005));
#939=CARTESIAN_POINT('',(121.0842461208,1.88963993836822,1.60000000000005));
#940=CARTESIAN_POINT('',(128.925,-1.45499999999956,1.6));
#941=CARTESIAN_POINT('',(121.418,-1.45499999999984,1.60000000000004));
#942=CARTESIAN_POINT('',(128.925,3.24500000000057,1.6));
#943=CARTESIAN_POINT('',(128.925,-1.45499999999949,1.59999999999999));
#944=CARTESIAN_POINT('',(128.925,3.25500000000055,1.6));
#945=CARTESIAN_POINT('',(128.924999999998,2.07820405186361,1.60000000000001));
#946=CARTESIAN_POINT('',(127.01250564119,3.25500000000041,1.60000000000001));
#947=CARTESIAN_POINT('Origin',(128.925,-1.45499999999949,13.));
#948=CARTESIAN_POINT('',(128.925,3.24500000000064,24.4));
#949=CARTESIAN_POINT('',(128.925,3.24500000000057,13.));
#950=CARTESIAN_POINT('',(128.925,-1.45499999999949,24.4));
#951=CARTESIAN_POINT('',(128.925,-1.45499999999949,13.));
#952=CARTESIAN_POINT('',(128.925,-1.45499999999949,24.4));
#953=CARTESIAN_POINT('Origin',(121.418,-1.45499999999984,13.));
#954=CARTESIAN_POINT('',(121.418,-1.45499999999977,24.4));
#955=CARTESIAN_POINT('',(121.418,-1.45499999999984,13.));
#956=CARTESIAN_POINT('',(121.418,-1.45499999999977,24.4));
#957=CARTESIAN_POINT('Origin',(125.100011282381,0.911408103735596,24.4));
#958=CARTESIAN_POINT('',(120.948,3.25500000000027,24.4));
#959=CARTESIAN_POINT('',(121.0842461208,1.88963993836822,24.4000000000001));
#960=CARTESIAN_POINT('',(128.925,3.25500000000062,24.4));
#961=CARTESIAN_POINT('',(127.01250564119,3.25500000000048,24.4));
#962=CARTESIAN_POINT('',(128.924999999998,2.07820405186368,24.4));
#963=CARTESIAN_POINT('Origin',(128.925,3.24500000000057,13.));
#964=CARTESIAN_POINT('',(128.925,3.24500000000057,0.));
#965=CARTESIAN_POINT('',(128.925,3.24500000000057,13.));
#966=CARTESIAN_POINT('',(128.925,3.25500000000055,0.));
#967=CARTESIAN_POINT('',(128.925,3.25500000000055,4.44089209850063E-15));
#968=CARTESIAN_POINT('',(128.925,3.25500000000062,13.));
#969=CARTESIAN_POINT('Origin',(128.925,3.24500000000057,13.));
#970=CARTESIAN_POINT('',(128.925,3.25500000000062,26.));
#971=CARTESIAN_POINT('',(128.925,3.25500000000062,13.));
#972=CARTESIAN_POINT('',(128.925,3.24500000000064,26.));
#973=CARTESIAN_POINT('',(128.925,3.25500000000062,26.));
#974=CARTESIAN_POINT('',(128.925,3.24500000000057,13.));
#975=CARTESIAN_POINT('Origin',(128.925,3.25500000000062,13.));
#976=CARTESIAN_POINT('',(120.948,3.25500000000027,4.88498130835069E-14));
#977=CARTESIAN_POINT('',(120.948,3.25500000000019,5.32907051820075E-14));
#978=CARTESIAN_POINT('',(120.948,3.25500000000027,13.));
#979=CARTESIAN_POINT('Origin',(128.925,3.25500000000062,13.));
#980=CARTESIAN_POINT('',(120.948,3.25500000000027,26.));
#981=CARTESIAN_POINT('',(120.948,3.25500000000027,13.));
#982=CARTESIAN_POINT('',(120.948,3.25500000000027,26.));
#983=CARTESIAN_POINT('Origin',(120.948,3.25500000000027,13.));
#984=CARTESIAN_POINT('',(121.418,-1.45499999999984,4.88498130835069E-14));
#985=CARTESIAN_POINT('',(121.418,-1.45499999999984,5.32907051820075E-14));
#986=CARTESIAN_POINT('',(121.418,-1.45499999999984,13.));
#987=CARTESIAN_POINT('Origin',(120.948,3.25500000000027,13.));
#988=CARTESIAN_POINT('',(121.418,-1.45499999999977,26.));
#989=CARTESIAN_POINT('',(121.418,-1.45499999999984,13.));
#990=CARTESIAN_POINT('',(121.418,-1.45499999999977,26.));
#991=CARTESIAN_POINT('Origin',(119.993056845759,0.0945155794592978,4.44089209850063E-14));
#992=CARTESIAN_POINT('',(109.475,-3.25500000000041,1.06581410364015E-13));
#993=CARTESIAN_POINT('',(109.475,3.24499999999972,1.02140518265514E-13));
#994=CARTESIAN_POINT('',(109.475,-3.25500000000041,1.11022302462516E-13));
#995=CARTESIAN_POINT('',(120.948,3.24500000000022,4.44089209850063E-14));
#996=CARTESIAN_POINT('',(109.475,3.24499999999972,1.06581410364015E-13));
#997=CARTESIAN_POINT('',(120.948,3.24500000000022,5.32907051820075E-14));
#998=CARTESIAN_POINT('',(130.525,3.24500000000057,-8.88178419700125E-15));
#999=CARTESIAN_POINT('',(128.925,3.24500000000057,4.44089209850063E-15));
#1000=CARTESIAN_POINT('',(130.525,-3.05499999999945,-1.33226762955019E-14));
#1001=CARTESIAN_POINT('',(130.525,3.24500000000057,-4.44089209850063E-15));
#1002=CARTESIAN_POINT('',(120.578,-3.05499999999988,5.32907051820075E-14));
#1003=CARTESIAN_POINT('',(130.525,-3.05499999999945,-4.44089209850063E-15));
#1004=CARTESIAN_POINT('',(119.918,-2.45499999999993,4.88498130835069E-14));
#1005=CARTESIAN_POINT('',(120.578,-3.05499999999988,5.77315972805081E-14));
#1006=CARTESIAN_POINT('',(119.504369475417,0.236428525538486,5.32907051820075E-14));
#1007=CARTESIAN_POINT('',(119.918,-2.45499999999993,5.32907051820075E-14));
#1008=CARTESIAN_POINT('',(119.507035183162,0.62559277357721,5.77315972805081E-14));
#1009=CARTESIAN_POINT('',(119.504369475417,0.236428525538486,5.77315972805081E-14));
#1010=CARTESIAN_POINT('',(119.436135538252,1.00855480272635,5.77315972805081E-14));
#1011=CARTESIAN_POINT('',(119.507035183162,0.62559277357721,6.66133814775094E-14));
#1012=CARTESIAN_POINT('',(119.2941054948,1.37216229086278,5.32907051820075E-14));
#1013=CARTESIAN_POINT('',(119.436135538252,1.00855480272635,6.66133814775094E-14));
#1014=CARTESIAN_POINT('',(119.085822885961,1.70392762186175,5.32907051820075E-14));
#1015=CARTESIAN_POINT('',(119.2941054948,1.37216229086278,5.77315972805081E-14));
#1016=CARTESIAN_POINT('',(118.818440901229,1.99245675618293,5.77315972805081E-14));
#1017=CARTESIAN_POINT('',(119.085822885961,1.70392762186175,6.21724893790088E-14));
#1018=CARTESIAN_POINT('',(118.501142419653,2.22784054402126,6.21724893790088E-14));
#1019=CARTESIAN_POINT('',(118.818440901229,1.99245675618293,6.21724893790088E-14));
#1020=CARTESIAN_POINT('',(118.144824636048,2.40199504189256,5.77315972805081E-14));
#1021=CARTESIAN_POINT('',(118.501142419653,2.22784054402126,6.21724893790088E-14));
#1022=CARTESIAN_POINT('',(117.76172481132,2.50893914493318,5.77315972805081E-14));
#1023=CARTESIAN_POINT('',(118.144824636048,2.40199504189256,6.66133814775094E-14));
#1024=CARTESIAN_POINT('',(117.365,2.545,6.21724893790088E-14));
#1025=CARTESIAN_POINT('',(117.76172481132,2.50893914493318,6.66133814775094E-14));
#1026=CARTESIAN_POINT('',(111.975,2.54499999999979,8.88178419700125E-14));
#1027=CARTESIAN_POINT('',(117.365,2.545,7.105427357601E-14));
#1028=CARTESIAN_POINT('',(111.975,-0.655000000000285,9.76996261670138E-14));
#1029=CARTESIAN_POINT('',(111.975,2.54499999999979,9.32587340685131E-14));
#1030=CARTESIAN_POINT('',(112.825,-0.655000000000285,8.43769498715119E-14));
#1031=CARTESIAN_POINT('',(111.975,-0.655000000000285,1.02140518265514E-13));
#1032=CARTESIAN_POINT('',(112.825,-1.05500000000021,8.88178419700125E-14));
#1033=CARTESIAN_POINT('',(112.825,-0.655000000000285,8.88178419700125E-14));
#1034=CARTESIAN_POINT('',(111.975,-2.05500000000029,9.76996261670138E-14));
#1035=CARTESIAN_POINT('',(112.825,-1.05500000000021,9.32587340685131E-14));
#1036=CARTESIAN_POINT('',(111.975,-3.25500000000034,8.88178419700125E-14));
#1037=CARTESIAN_POINT('',(111.975,-2.05500000000029,9.76996261670138E-14));
#1038=CARTESIAN_POINT('',(111.975,-3.25500000000034,9.76996261670138E-14));
#1039=CARTESIAN_POINT('Origin',(120.948,3.24500000000029,13.));
#1040=CARTESIAN_POINT('',(109.475,3.24499999999979,26.0000000000001));
#1041=CARTESIAN_POINT('',(109.475,3.24499999999972,13.0000000000001));
#1042=CARTESIAN_POINT('',(120.948,3.24500000000029,26.));
#1043=CARTESIAN_POINT('',(109.475,3.24499999999972,26.0000000000001));
#1044=CARTESIAN_POINT('',(120.948,3.24500000000029,13.));
#1045=CARTESIAN_POINT('Origin',(121.418,-1.45499999999984,13.));
#1046=CARTESIAN_POINT('',(120.948,3.24500000000029,26.));
#1047=CARTESIAN_POINT('Origin',(130.525,3.24500000000064,13.));
#1048=CARTESIAN_POINT('',(130.525,3.24500000000064,26.));
#1049=CARTESIAN_POINT('',(128.925,3.24500000000064,26.));
#1050=CARTESIAN_POINT('',(130.525,3.24500000000064,13.));
#1051=CARTESIAN_POINT('Origin',(130.525,-3.05499999999945,13.));
#1052=CARTESIAN_POINT('',(130.525,-3.05499999999938,26.));
#1053=CARTESIAN_POINT('',(130.525,3.24500000000064,26.));
#1054=CARTESIAN_POINT('',(130.525,-3.05499999999945,13.));
#1055=CARTESIAN_POINT('Origin',(120.578,-3.05499999999988,13.0000000000001));
#1056=CARTESIAN_POINT('',(120.578,-3.05499999999981,26.));
#1057=CARTESIAN_POINT('',(130.525,-3.05499999999945,26.));
#1058=CARTESIAN_POINT('',(120.578,-3.05499999999988,13.0000000000001));
#1059=CARTESIAN_POINT('Origin',(119.918,-2.45499999999986,13.));
#1060=CARTESIAN_POINT('',(119.918,-2.45499999999986,26.));
#1061=CARTESIAN_POINT('',(120.578,-3.05499999999981,26.));
#1062=CARTESIAN_POINT('',(119.918,-2.45499999999986,13.));
#1063=CARTESIAN_POINT('Origin',(119.504369475417,0.236428525538486,13.0000000000001));
#1064=CARTESIAN_POINT('',(119.504369475417,0.236428525538486,26.0000000000001));
#1065=CARTESIAN_POINT('',(119.918,-2.45499999999986,26.));
#1066=CARTESIAN_POINT('',(119.504369475417,0.236428525538486,13.0000000000001));
#1067=CARTESIAN_POINT('Origin',(119.507035183162,0.62559277357721,13.));
#1068=CARTESIAN_POINT('',(119.507035183162,0.625592773577281,26.0000000000001));
#1069=CARTESIAN_POINT('',(119.504369475417,0.236428525538486,26.0000000000001));
#1070=CARTESIAN_POINT('',(119.507035183162,0.62559277357721,13.0000000000001));
#1071=CARTESIAN_POINT('Origin',(119.436135538252,1.00855480272642,13.0000000000001));
#1072=CARTESIAN_POINT('',(119.436135538252,1.00855480272642,26.0000000000001));
#1073=CARTESIAN_POINT('',(119.507035183162,0.625592773577281,26.0000000000001));
#1074=CARTESIAN_POINT('',(119.436135538252,1.00855480272642,13.0000000000001));
#1075=CARTESIAN_POINT('Origin',(119.2941054948,1.37216229086278,13.0000000000001));
#1076=CARTESIAN_POINT('',(119.2941054948,1.37216229086278,26.0000000000001));
#1077=CARTESIAN_POINT('',(119.436135538252,1.00855480272642,26.0000000000001));
#1078=CARTESIAN_POINT('',(119.2941054948,1.37216229086278,13.0000000000001));
#1079=CARTESIAN_POINT('Origin',(119.085822885961,1.70392762186175,13.));
#1080=CARTESIAN_POINT('',(119.085822885961,1.70392762186182,26.));
#1081=CARTESIAN_POINT('',(119.2941054948,1.37216229086278,26.0000000000001));
#1082=CARTESIAN_POINT('',(119.085822885961,1.70392762186175,13.));
#1083=CARTESIAN_POINT('Origin',(118.81844090123,1.992456756183,13.0000000000001));
#1084=CARTESIAN_POINT('',(118.81844090123,1.992456756183,26.0000000000001));
#1085=CARTESIAN_POINT('',(119.085822885961,1.70392762186182,26.0000000000001));
#1086=CARTESIAN_POINT('',(118.81844090123,1.992456756183,13.0000000000001));
#1087=CARTESIAN_POINT('Origin',(118.501142419653,2.22784054402126,13.0000000000001));
#1088=CARTESIAN_POINT('',(118.501142419653,2.22784054402133,26.0000000000001));
#1089=CARTESIAN_POINT('',(118.81844090123,1.992456756183,26.0000000000001));
#1090=CARTESIAN_POINT('',(118.501142419653,2.22784054402126,13.0000000000001));
#1091=CARTESIAN_POINT('Origin',(118.144824636048,2.40199504189263,13.0000000000001));
#1092=CARTESIAN_POINT('',(118.144824636048,2.40199504189263,26.0000000000001));
#1093=CARTESIAN_POINT('',(118.501142419653,2.22784054402133,26.0000000000001));
#1094=CARTESIAN_POINT('',(118.144824636048,2.40199504189263,13.0000000000001));
#1095=CARTESIAN_POINT('Origin',(117.76172481132,2.50893914493318,13.0000000000001));
#1096=CARTESIAN_POINT('',(117.76172481132,2.50893914493325,26.0000000000001));
#1097=CARTESIAN_POINT('',(118.144824636048,2.40199504189263,26.0000000000001));
#1098=CARTESIAN_POINT('',(117.76172481132,2.50893914493318,13.0000000000001));
#1099=CARTESIAN_POINT('Origin',(117.365,2.54500000000007,13.0000000000001));
#1100=CARTESIAN_POINT('',(117.365,2.54500000000007,26.0000000000001));
#1101=CARTESIAN_POINT('',(117.76172481132,2.50893914493318,26.0000000000001));
#1102=CARTESIAN_POINT('',(117.365,2.54500000000007,13.0000000000001));
#1103=CARTESIAN_POINT('Origin',(111.975,2.54499999999979,13.0000000000001));
#1104=CARTESIAN_POINT('',(111.975,2.54499999999986,26.0000000000001));
#1105=CARTESIAN_POINT('',(117.365,2.54500000000007,26.0000000000001));
#1106=CARTESIAN_POINT('',(111.975,2.54499999999979,13.0000000000001));
#1107=CARTESIAN_POINT('Origin',(111.975,-0.655000000000285,13.0000000000001));
#1108=CARTESIAN_POINT('',(111.975,-0.655000000000285,26.0000000000001));
#1109=CARTESIAN_POINT('',(111.975,2.54499999999986,26.0000000000001));
#1110=CARTESIAN_POINT('',(111.975,-0.655000000000285,13.0000000000001));
#1111=CARTESIAN_POINT('Origin',(112.825,-0.655000000000214,13.0000000000001));
#1112=CARTESIAN_POINT('',(112.825,-0.655000000000214,26.0000000000001));
#1113=CARTESIAN_POINT('',(111.975,-0.655000000000285,26.0000000000001));
#1114=CARTESIAN_POINT('',(112.825,-0.655000000000214,13.0000000000001));
#1115=CARTESIAN_POINT('Origin',(112.825,-1.05500000000021,13.0000000000001));
#1116=CARTESIAN_POINT('',(112.825,-1.05500000000013,26.0000000000001));
#1117=CARTESIAN_POINT('',(112.825,-0.655000000000214,26.0000000000001));
#1118=CARTESIAN_POINT('',(112.825,-1.05500000000021,13.0000000000001));
#1119=CARTESIAN_POINT('Origin',(111.975,-2.05500000000029,13.0000000000001));
#1120=CARTESIAN_POINT('',(111.975,-2.05500000000022,26.0000000000001));
#1121=CARTESIAN_POINT('',(112.825,-1.05500000000013,26.0000000000001));
#1122=CARTESIAN_POINT('',(111.975,-2.05500000000029,13.0000000000001));
#1123=CARTESIAN_POINT('Origin',(111.975,-3.25500000000027,13.0000000000001));
#1124=CARTESIAN_POINT('',(111.975,-3.25500000000027,26.0000000000001));
#1125=CARTESIAN_POINT('',(111.975,-2.05500000000022,26.0000000000001));
#1126=CARTESIAN_POINT('',(111.975,-3.25500000000027,13.0000000000001));
#1127=CARTESIAN_POINT('Origin',(109.475,-3.25500000000041,13.0000000000001));
#1128=CARTESIAN_POINT('',(109.475,-3.25500000000034,26.0000000000001));
#1129=CARTESIAN_POINT('',(111.975,-3.25500000000027,26.0000000000001));
#1130=CARTESIAN_POINT('',(109.475,-3.25500000000041,13.0000000000001));
#1131=CARTESIAN_POINT('Origin',(109.475,3.24499999999972,13.0000000000001));
#1132=CARTESIAN_POINT('',(109.475,-3.25500000000034,26.0000000000001));
#1133=CARTESIAN_POINT('Origin',(119.993056845759,0.0945155794593688,26.));
#1134=UNCERTAINTY_MEASURE_WITH_UNIT(LENGTH_MEASURE(0.01),#1138,
'DISTANCE_ACCURACY_VALUE',
'Maximum model space distance between geometric entities at asserted c
onnectivities');
#1135=UNCERTAINTY_MEASURE_WITH_UNIT(LENGTH_MEASURE(0.01),#1138,
'DISTANCE_ACCURACY_VALUE',
'Maximum model space distance between geometric entities at asserted c
onnectivities');
#1136=(
GEOMETRIC_REPRESENTATION_CONTEXT(3)
GLOBAL_UNCERTAINTY_ASSIGNED_CONTEXT((#1134))
GLOBAL_UNIT_ASSIGNED_CONTEXT((#1138,#1140,#1141))
REPRESENTATION_CONTEXT('','3D')
);
#1137=(
GEOMETRIC_REPRESENTATION_CONTEXT(3)
GLOBAL_UNCERTAINTY_ASSIGNED_CONTEXT((#1135))
GLOBAL_UNIT_ASSIGNED_CONTEXT((#1138,#1140,#1141))
REPRESENTATION_CONTEXT('','3D')
);
#1138=(
LENGTH_UNIT()
NAMED_UNIT(*)
SI_UNIT(.MILLI.,.METRE.)
);
#1139=(
LENGTH_UNIT()
NAMED_UNIT(*)
SI_UNIT($,.METRE.)
);
#1140=(
NAMED_UNIT(*)
PLANE_ANGLE_UNIT()
SI_UNIT($,.RADIAN.)
);
#1141=(
NAMED_UNIT(*)
SI_UNIT($,.STERADIAN.)
SOLID_ANGLE_UNIT()
);
#1142=SHAPE_DEFINITION_REPRESENTATION(#1143,#1144);
#1143=PRODUCT_DEFINITION_SHAPE('',$,#1146);
#1144=SHAPE_REPRESENTATION('',(#726),#1136);
#1145=PRODUCT_DEFINITION_CONTEXT('part definition',#1150,'design');
#1146=PRODUCT_DEFINITION('2026-10-02-21-24-53-597','(Unsaved)',#1147,#1145);
#1147=PRODUCT_DEFINITION_FORMATION('',$,#1152);
#1148=PRODUCT_RELATED_PRODUCT_CATEGORY('(Unsaved)','(Unsaved)',(#1152));
#1149=APPLICATION_PROTOCOL_DEFINITION('international standard',
'automotive_design',2009,#1150);
#1150=APPLICATION_CONTEXT(
'Core Data for Automotive Mechanical Design Process');
#1151=PRODUCT_CONTEXT('part definition',#1150,'mechanical');
#1152=PRODUCT('2026-10-02-21-24-53-597','(Unsaved)',$,(#1151));
#1153=PRESENTATION_STYLE_ASSIGNMENT((#1154));
#1154=SURFACE_STYLE_USAGE(.BOTH.,#1155);
#1155=SURFACE_SIDE_STYLE('',(#1156));
#1156=SURFACE_STYLE_FILL_AREA(#1157);
#1157=FILL_AREA_STYLE('Steel - Satin',(#1158));
#1158=FILL_AREA_STYLE_COLOUR('Steel - Satin',#1159);
#1159=COLOUR_RGB('Steel - Satin',0.627450980392157,0.627450980392157,0.627450980392157);
ENDSEC;
END-ISO-10303-21;
