ISO-10303-21;
HEADER;
/* Generated by software containing ST-Developer
 * from STEP Tools, Inc. (www.steptools.com) 
 */

FILE_DESCRIPTION(
/* description */ (''),
/* implementation_level */ '2;1');

FILE_NAME(
/* name */ 'Part3_bayonet_flange.step',
/* time_stamp */ '2026-09-29T11:45:03+04:00',
/* author */ (''),
/* organization */ (''),
/* preprocessor_version */ 'ST-DEVELOPER v20.2',
/* originating_system */ 'Autodesk Translation Framework v15.15.0.0',
/* authorisation */ '');

FILE_SCHEMA (('AUTOMOTIVE_DESIGN { 1 0 10303 214 3 1 1 }'));
ENDSEC;

DATA;
#10=MECHANICAL_DESIGN_GEOMETRIC_PRESENTATION_REPRESENTATION('',(#13),#993);
#11=SHAPE_REPRESENTATION_RELATIONSHIP('SRR','None',#1000,#12);
#12=ADVANCED_BREP_SHAPE_REPRESENTATION('',(#14),#992);
#13=STYLED_ITEM('',(#1009),#14);
#14=MANIFOLD_SOLID_BREP('Part3_bayonet_flange',#565);
#15=FACE_BOUND('',#121,.T.);
#16=FACE_BOUND('',#124,.T.);
#17=FACE_BOUND('',#128,.T.);
#18=FACE_BOUND('',#131,.T.);
#19=FACE_BOUND('',#134,.T.);
#20=CONICAL_SURFACE('',#603,32.25,0.785398163397448);
#21=CONICAL_SURFACE('',#631,29.825,0.785398163397449);
#22=CONICAL_SURFACE('',#637,36.25,0.785398163397447);
#23=CONICAL_SURFACE('',#641,36.25,0.785398163397448);
#24=CONICAL_SURFACE('',#645,32.25,0.785398163397448);
#25=TOROIDAL_SURFACE('',#593,28.,4.);
#26=CIRCLE('',#581,34.);
#27=CIRCLE('',#582,34.);
#28=CIRCLE('',#584,4.);
#29=CIRCLE('',#587,34.);
#30=CIRCLE('',#588,34.0000000000002);
#31=CIRCLE('',#590,4.);
#32=CIRCLE('',#594,31.0225155086451);
#33=CIRCLE('',#595,32.);
#34=CIRCLE('',#596,4.);
#35=CIRCLE('',#597,31.0225155086451);
#36=CIRCLE('',#598,4.);
#37=CIRCLE('',#599,31.);
#38=CIRCLE('',#600,31.0225155086451);
#39=CIRCLE('',#601,32.);
#40=CIRCLE('',#602,4.);
#41=CIRCLE('',#604,32.5);
#42=CIRCLE('',#605,32.);
#43=CIRCLE('',#607,32.);
#44=CIRCLE('',#609,32.);
#45=CIRCLE('',#610,32.);
#46=CIRCLE('',#612,36.5);
#47=CIRCLE('',#613,36.5);
#48=CIRCLE('',#616,36.5);
#49=CIRCLE('',#617,36.5);
#50=CIRCLE('',#619,36.5);
#51=CIRCLE('',#622,36.5);
#52=CIRCLE('',#624,31.);
#53=CIRCLE('',#626,27.);
#54=CIRCLE('',#628,27.);
#55=CIRCLE('',#630,28.);
#56=CIRCLE('',#632,31.65);
#57=CIRCLE('',#634,31.65);
#58=CIRCLE('',#636,36.);
#59=CIRCLE('',#638,36.5);
#60=CIRCLE('',#640,36.5);
#61=CIRCLE('',#642,36.);
#62=CIRCLE('',#644,32.5);
#63=CYLINDRICAL_SURFACE('',#580,34.);
#64=CYLINDRICAL_SURFACE('',#586,34.);
#65=CYLINDRICAL_SURFACE('',#606,32.);
#66=CYLINDRICAL_SURFACE('',#608,32.);
#67=CYLINDRICAL_SURFACE('',#623,31.);
#68=CYLINDRICAL_SURFACE('',#627,27.);
#69=CYLINDRICAL_SURFACE('',#633,31.65);
#70=CYLINDRICAL_SURFACE('',#639,36.5);
#71=FACE_OUTER_BOUND('',#101,.T.);
#72=FACE_OUTER_BOUND('',#102,.T.);
#73=FACE_OUTER_BOUND('',#103,.T.);
#74=FACE_OUTER_BOUND('',#104,.T.);
#75=FACE_OUTER_BOUND('',#105,.T.);
#76=FACE_OUTER_BOUND('',#106,.T.);
#77=FACE_OUTER_BOUND('',#107,.T.);
#78=FACE_OUTER_BOUND('',#108,.T.);
#79=FACE_OUTER_BOUND('',#109,.T.);
#80=FACE_OUTER_BOUND('',#110,.T.);
#81=FACE_OUTER_BOUND('',#111,.T.);
#82=FACE_OUTER_BOUND('',#112,.T.);
#83=FACE_OUTER_BOUND('',#113,.T.);
#84=FACE_OUTER_BOUND('',#114,.T.);
#85=FACE_OUTER_BOUND('',#115,.T.);
#86=FACE_OUTER_BOUND('',#116,.T.);
#87=FACE_OUTER_BOUND('',#117,.T.);
#88=FACE_OUTER_BOUND('',#118,.T.);
#89=FACE_OUTER_BOUND('',#119,.T.);
#90=FACE_OUTER_BOUND('',#120,.T.);
#91=FACE_OUTER_BOUND('',#122,.T.);
#92=FACE_OUTER_BOUND('',#123,.T.);
#93=FACE_OUTER_BOUND('',#125,.T.);
#94=FACE_OUTER_BOUND('',#126,.T.);
#95=FACE_OUTER_BOUND('',#127,.T.);
#96=FACE_OUTER_BOUND('',#129,.T.);
#97=FACE_OUTER_BOUND('',#130,.T.);
#98=FACE_OUTER_BOUND('',#132,.T.);
#99=FACE_OUTER_BOUND('',#133,.T.);
#100=FACE_OUTER_BOUND('',#135,.T.);
#101=EDGE_LOOP('',(#357,#358,#359,#360,#361));
#102=EDGE_LOOP('',(#362,#363,#364,#365,#366));
#103=EDGE_LOOP('',(#367,#368,#369,#370,#371,#372));
#104=EDGE_LOOP('',(#373,#374,#375,#376,#377));
#105=EDGE_LOOP('',(#378,#379,#380,#381,#382));
#106=EDGE_LOOP('',(#383,#384,#385,#386,#387,#388));
#107=EDGE_LOOP('',(#389,#390,#391,#392));
#108=EDGE_LOOP('',(#393,#394,#395,#396));
#109=EDGE_LOOP('',(#397,#398,#399,#400,#401,#402,#403,#404,#405,#406,#407,
#408));
#110=EDGE_LOOP('',(#409,#410,#411,#412));
#111=EDGE_LOOP('',(#413,#414,#415,#416,#417,#418));
#112=EDGE_LOOP('',(#419,#420,#421,#422,#423,#424));
#113=EDGE_LOOP('',(#425,#426,#427,#428,#429,#430));
#114=EDGE_LOOP('',(#431,#432,#433,#434,#435));
#115=EDGE_LOOP('',(#436,#437,#438,#439,#440,#441,#442,#443));
#116=EDGE_LOOP('',(#444,#445,#446,#447,#448));
#117=EDGE_LOOP('',(#449,#450,#451,#452,#453));
#118=EDGE_LOOP('',(#454,#455,#456,#457,#458,#459));
#119=EDGE_LOOP('',(#460,#461,#462,#463));
#120=EDGE_LOOP('',(#464));
#121=EDGE_LOOP('',(#465));
#122=EDGE_LOOP('',(#466,#467,#468,#469));
#123=EDGE_LOOP('',(#470));
#124=EDGE_LOOP('',(#471));
#125=EDGE_LOOP('',(#472,#473,#474,#475));
#126=EDGE_LOOP('',(#476,#477,#478,#479));
#127=EDGE_LOOP('',(#480));
#128=EDGE_LOOP('',(#481));
#129=EDGE_LOOP('',(#482,#483,#484,#485));
#130=EDGE_LOOP('',(#486,#487,#488,#489,#490,#491,#492,#493,#494,#495,#496,
#497));
#131=EDGE_LOOP('',(#498,#499,#500,#501));
#132=EDGE_LOOP('',(#502,#503,#504,#505));
#133=EDGE_LOOP('',(#506));
#134=EDGE_LOOP('',(#507,#508,#509,#510,#511,#512,#513,#514));
#135=EDGE_LOOP('',(#515,#516,#517,#518));
#136=LINE('',#830,#180);
#137=LINE('',#832,#181);
#138=LINE('',#834,#182);
#139=LINE('',#836,#183);
#140=LINE('',#837,#184);
#141=LINE('',#842,#185);
#142=LINE('',#845,#186);
#143=LINE('',#848,#187);
#144=LINE('',#850,#188);
#145=LINE('',#852,#189);
#146=LINE('',#855,#190);
#147=LINE('',#859,#191);
#148=LINE('',#861,#192);
#149=LINE('',#863,#193);
#150=LINE('',#865,#194);
#151=LINE('',#866,#195);
#152=LINE('',#871,#196);
#153=LINE('',#874,#197);
#154=LINE('',#877,#198);
#155=LINE('',#879,#199);
#156=LINE('',#881,#200);
#157=LINE('',#884,#201);
#158=LINE('',#887,#202);
#159=LINE('',#889,#203);
#160=LINE('',#890,#204);
#161=LINE('',#893,#205);
#162=LINE('',#895,#206);
#163=LINE('',#896,#207);
#164=LINE('',#919,#208);
#165=LINE('',#923,#209);
#166=LINE('',#930,#210);
#167=LINE('',#933,#211);
#168=LINE('',#934,#212);
#169=LINE('',#942,#213);
#170=LINE('',#945,#214);
#171=LINE('',#946,#215);
#172=LINE('',#951,#216);
#173=LINE('',#958,#217);
#174=LINE('',#965,#218);
#175=LINE('',#969,#219);
#176=LINE('',#977,#220);
#177=LINE('',#981,#221);
#178=LINE('',#982,#222);
#179=LINE('',#986,#223);
#180=VECTOR('',#650,10.);
#181=VECTOR('',#651,10.);
#182=VECTOR('',#652,10.);
#183=VECTOR('',#653,10.);
#184=VECTOR('',#654,10.);
#185=VECTOR('',#659,10.);
#186=VECTOR('',#662,10.);
#187=VECTOR('',#665,10.);
#188=VECTOR('',#666,10.);
#189=VECTOR('',#667,10.);
#190=VECTOR('',#670,10.);
#191=VECTOR('',#673,10.);
#192=VECTOR('',#674,10.);
#193=VECTOR('',#675,10.);
#194=VECTOR('',#676,10.);
#195=VECTOR('',#677,10.);
#196=VECTOR('',#682,10.);
#197=VECTOR('',#685,10.);
#198=VECTOR('',#688,10.);
#199=VECTOR('',#689,10.);
#200=VECTOR('',#690,10.);
#201=VECTOR('',#693,10.);
#202=VECTOR('',#696,10.);
#203=VECTOR('',#697,10.);
#204=VECTOR('',#698,10.);
#205=VECTOR('',#701,10.);
#206=VECTOR('',#702,10.);
#207=VECTOR('',#703,10.);
#208=VECTOR('',#734,10.);
#209=VECTOR('',#739,10.);
#210=VECTOR('',#748,10.);
#211=VECTOR('',#751,10.);
#212=VECTOR('',#752,10.);
#213=VECTOR('',#763,10.);
#214=VECTOR('',#766,10.);
#215=VECTOR('',#767,10.);
#216=VECTOR('',#774,31.);
#217=VECTOR('',#783,27.);
#218=VECTOR('',#792,29.825);
#219=VECTOR('',#797,31.65);
#220=VECTOR('',#808,36.25);
#221=VECTOR('',#813,36.5);
#222=VECTOR('',#814,36.5);
#223=VECTOR('',#819,36.25);
#224=VERTEX_POINT('',#828);
#225=VERTEX_POINT('',#829);
#226=VERTEX_POINT('',#831);
#227=VERTEX_POINT('',#833);
#228=VERTEX_POINT('',#835);
#229=VERTEX_POINT('',#839);
#230=VERTEX_POINT('',#841);
#231=VERTEX_POINT('',#843);
#232=VERTEX_POINT('',#847);
#233=VERTEX_POINT('',#849);
#234=VERTEX_POINT('',#851);
#235=VERTEX_POINT('',#853);
#236=VERTEX_POINT('',#857);
#237=VERTEX_POINT('',#858);
#238=VERTEX_POINT('',#860);
#239=VERTEX_POINT('',#862);
#240=VERTEX_POINT('',#864);
#241=VERTEX_POINT('',#868);
#242=VERTEX_POINT('',#870);
#243=VERTEX_POINT('',#872);
#244=VERTEX_POINT('',#876);
#245=VERTEX_POINT('',#878);
#246=VERTEX_POINT('',#880);
#247=VERTEX_POINT('',#882);
#248=VERTEX_POINT('',#886);
#249=VERTEX_POINT('',#888);
#250=VERTEX_POINT('',#892);
#251=VERTEX_POINT('',#894);
#252=VERTEX_POINT('',#898);
#253=VERTEX_POINT('',#900);
#254=VERTEX_POINT('',#902);
#255=VERTEX_POINT('',#904);
#256=VERTEX_POINT('',#906);
#257=VERTEX_POINT('',#910);
#258=VERTEX_POINT('',#917);
#259=VERTEX_POINT('',#921);
#260=VERTEX_POINT('',#926);
#261=VERTEX_POINT('',#928);
#262=VERTEX_POINT('',#932);
#263=VERTEX_POINT('',#936);
#264=VERTEX_POINT('',#940);
#265=VERTEX_POINT('',#944);
#266=VERTEX_POINT('',#950);
#267=VERTEX_POINT('',#954);
#268=VERTEX_POINT('',#957);
#269=VERTEX_POINT('',#961);
#270=VERTEX_POINT('',#964);
#271=VERTEX_POINT('',#968);
#272=VERTEX_POINT('',#972);
#273=VERTEX_POINT('',#975);
#274=VERTEX_POINT('',#979);
#275=VERTEX_POINT('',#984);
#276=EDGE_CURVE('',#224,#225,#136,.T.);
#277=EDGE_CURVE('',#226,#224,#137,.T.);
#278=EDGE_CURVE('',#227,#226,#138,.T.);
#279=EDGE_CURVE('',#228,#227,#139,.T.);
#280=EDGE_CURVE('',#225,#228,#140,.T.);
#281=EDGE_CURVE('',#229,#228,#26,.T.);
#282=EDGE_CURVE('',#229,#230,#141,.T.);
#283=EDGE_CURVE('',#230,#231,#27,.T.);
#284=EDGE_CURVE('',#225,#231,#142,.T.);
#285=EDGE_CURVE('',#232,#229,#143,.T.);
#286=EDGE_CURVE('',#233,#232,#144,.T.);
#287=EDGE_CURVE('',#234,#233,#145,.T.);
#288=EDGE_CURVE('',#235,#234,#28,.T.);
#289=EDGE_CURVE('',#230,#235,#146,.T.);
#290=EDGE_CURVE('',#236,#237,#147,.T.);
#291=EDGE_CURVE('',#238,#236,#148,.T.);
#292=EDGE_CURVE('',#239,#238,#149,.T.);
#293=EDGE_CURVE('',#240,#239,#150,.T.);
#294=EDGE_CURVE('',#237,#240,#151,.T.);
#295=EDGE_CURVE('',#241,#240,#29,.T.);
#296=EDGE_CURVE('',#241,#242,#152,.T.);
#297=EDGE_CURVE('',#243,#242,#30,.T.);
#298=EDGE_CURVE('',#237,#243,#153,.T.);
#299=EDGE_CURVE('',#244,#241,#154,.T.);
#300=EDGE_CURVE('',#245,#244,#155,.T.);
#301=EDGE_CURVE('',#246,#245,#156,.T.);
#302=EDGE_CURVE('',#247,#246,#31,.T.);
#303=EDGE_CURVE('',#242,#247,#157,.T.);
#304=EDGE_CURVE('',#248,#231,#158,.T.);
#305=EDGE_CURVE('',#249,#248,#159,.T.);
#306=EDGE_CURVE('',#225,#249,#160,.T.);
#307=EDGE_CURVE('',#250,#243,#161,.T.);
#308=EDGE_CURVE('',#251,#250,#162,.T.);
#309=EDGE_CURVE('',#237,#251,#163,.T.);
#310=EDGE_CURVE('',#252,#235,#32,.T.);
#311=EDGE_CURVE('',#234,#253,#33,.T.);
#312=EDGE_CURVE('',#253,#254,#34,.T.);
#313=EDGE_CURVE('',#254,#255,#35,.T.);
#314=EDGE_CURVE('',#255,#256,#36,.T.);
#315=EDGE_CURVE('',#256,#256,#37,.T.);
#316=EDGE_CURVE('',#255,#247,#38,.T.);
#317=EDGE_CURVE('',#246,#257,#39,.T.);
#318=EDGE_CURVE('',#257,#252,#40,.T.);
#319=EDGE_CURVE('',#232,#239,#41,.T.);
#320=EDGE_CURVE('',#233,#238,#42,.T.);
#321=EDGE_CURVE('',#236,#258,#43,.T.);
#322=EDGE_CURVE('',#258,#253,#164,.T.);
#323=EDGE_CURVE('',#224,#259,#44,.T.);
#324=EDGE_CURVE('',#259,#257,#165,.T.);
#325=EDGE_CURVE('',#245,#226,#45,.T.);
#326=EDGE_CURVE('',#260,#251,#46,.T.);
#327=EDGE_CURVE('',#261,#260,#47,.T.);
#328=EDGE_CURVE('',#261,#258,#166,.T.);
#329=EDGE_CURVE('',#262,#261,#167,.T.);
#330=EDGE_CURVE('',#254,#262,#168,.T.);
#331=EDGE_CURVE('',#263,#262,#48,.T.);
#332=EDGE_CURVE('',#250,#263,#49,.T.);
#333=EDGE_CURVE('',#264,#249,#50,.T.);
#334=EDGE_CURVE('',#264,#259,#169,.T.);
#335=EDGE_CURVE('',#265,#264,#170,.T.);
#336=EDGE_CURVE('',#252,#265,#171,.T.);
#337=EDGE_CURVE('',#248,#265,#51,.T.);
#338=EDGE_CURVE('',#256,#266,#172,.T.);
#339=EDGE_CURVE('',#266,#266,#52,.T.);
#340=EDGE_CURVE('',#267,#267,#53,.T.);
#341=EDGE_CURVE('',#267,#268,#173,.T.);
#342=EDGE_CURVE('',#268,#268,#54,.T.);
#343=EDGE_CURVE('',#269,#269,#55,.T.);
#344=EDGE_CURVE('',#269,#270,#174,.T.);
#345=EDGE_CURVE('',#270,#270,#56,.T.);
#346=EDGE_CURVE('',#270,#271,#175,.T.);
#347=EDGE_CURVE('',#271,#271,#57,.T.);
#348=EDGE_CURVE('',#272,#272,#58,.T.);
#349=EDGE_CURVE('',#273,#273,#59,.T.);
#350=EDGE_CURVE('',#273,#272,#176,.T.);
#351=EDGE_CURVE('',#274,#274,#60,.T.);
#352=EDGE_CURVE('',#274,#260,#177,.T.);
#353=EDGE_CURVE('',#263,#273,#178,.T.);
#354=EDGE_CURVE('',#275,#275,#61,.T.);
#355=EDGE_CURVE('',#275,#274,#179,.T.);
#356=EDGE_CURVE('',#244,#227,#62,.T.);
#357=ORIENTED_EDGE('',*,*,#276,.F.);
#358=ORIENTED_EDGE('',*,*,#277,.F.);
#359=ORIENTED_EDGE('',*,*,#278,.F.);
#360=ORIENTED_EDGE('',*,*,#279,.F.);
#361=ORIENTED_EDGE('',*,*,#280,.F.);
#362=ORIENTED_EDGE('',*,*,#281,.F.);
#363=ORIENTED_EDGE('',*,*,#282,.T.);
#364=ORIENTED_EDGE('',*,*,#283,.T.);
#365=ORIENTED_EDGE('',*,*,#284,.F.);
#366=ORIENTED_EDGE('',*,*,#280,.T.);
#367=ORIENTED_EDGE('',*,*,#285,.F.);
#368=ORIENTED_EDGE('',*,*,#286,.F.);
#369=ORIENTED_EDGE('',*,*,#287,.F.);
#370=ORIENTED_EDGE('',*,*,#288,.F.);
#371=ORIENTED_EDGE('',*,*,#289,.F.);
#372=ORIENTED_EDGE('',*,*,#282,.F.);
#373=ORIENTED_EDGE('',*,*,#290,.F.);
#374=ORIENTED_EDGE('',*,*,#291,.F.);
#375=ORIENTED_EDGE('',*,*,#292,.F.);
#376=ORIENTED_EDGE('',*,*,#293,.F.);
#377=ORIENTED_EDGE('',*,*,#294,.F.);
#378=ORIENTED_EDGE('',*,*,#295,.F.);
#379=ORIENTED_EDGE('',*,*,#296,.T.);
#380=ORIENTED_EDGE('',*,*,#297,.F.);
#381=ORIENTED_EDGE('',*,*,#298,.F.);
#382=ORIENTED_EDGE('',*,*,#294,.T.);
#383=ORIENTED_EDGE('',*,*,#299,.F.);
#384=ORIENTED_EDGE('',*,*,#300,.F.);
#385=ORIENTED_EDGE('',*,*,#301,.F.);
#386=ORIENTED_EDGE('',*,*,#302,.F.);
#387=ORIENTED_EDGE('',*,*,#303,.F.);
#388=ORIENTED_EDGE('',*,*,#296,.F.);
#389=ORIENTED_EDGE('',*,*,#284,.T.);
#390=ORIENTED_EDGE('',*,*,#304,.F.);
#391=ORIENTED_EDGE('',*,*,#305,.F.);
#392=ORIENTED_EDGE('',*,*,#306,.F.);
#393=ORIENTED_EDGE('',*,*,#298,.T.);
#394=ORIENTED_EDGE('',*,*,#307,.F.);
#395=ORIENTED_EDGE('',*,*,#308,.F.);
#396=ORIENTED_EDGE('',*,*,#309,.F.);
#397=ORIENTED_EDGE('',*,*,#310,.T.);
#398=ORIENTED_EDGE('',*,*,#288,.T.);
#399=ORIENTED_EDGE('',*,*,#311,.T.);
#400=ORIENTED_EDGE('',*,*,#312,.T.);
#401=ORIENTED_EDGE('',*,*,#313,.T.);
#402=ORIENTED_EDGE('',*,*,#314,.T.);
#403=ORIENTED_EDGE('',*,*,#315,.F.);
#404=ORIENTED_EDGE('',*,*,#314,.F.);
#405=ORIENTED_EDGE('',*,*,#316,.T.);
#406=ORIENTED_EDGE('',*,*,#302,.T.);
#407=ORIENTED_EDGE('',*,*,#317,.T.);
#408=ORIENTED_EDGE('',*,*,#318,.T.);
#409=ORIENTED_EDGE('',*,*,#286,.T.);
#410=ORIENTED_EDGE('',*,*,#319,.T.);
#411=ORIENTED_EDGE('',*,*,#292,.T.);
#412=ORIENTED_EDGE('',*,*,#320,.F.);
#413=ORIENTED_EDGE('',*,*,#287,.T.);
#414=ORIENTED_EDGE('',*,*,#320,.T.);
#415=ORIENTED_EDGE('',*,*,#291,.T.);
#416=ORIENTED_EDGE('',*,*,#321,.T.);
#417=ORIENTED_EDGE('',*,*,#322,.T.);
#418=ORIENTED_EDGE('',*,*,#311,.F.);
#419=ORIENTED_EDGE('',*,*,#277,.T.);
#420=ORIENTED_EDGE('',*,*,#323,.T.);
#421=ORIENTED_EDGE('',*,*,#324,.T.);
#422=ORIENTED_EDGE('',*,*,#317,.F.);
#423=ORIENTED_EDGE('',*,*,#301,.T.);
#424=ORIENTED_EDGE('',*,*,#325,.T.);
#425=ORIENTED_EDGE('',*,*,#321,.F.);
#426=ORIENTED_EDGE('',*,*,#290,.T.);
#427=ORIENTED_EDGE('',*,*,#309,.T.);
#428=ORIENTED_EDGE('',*,*,#326,.F.);
#429=ORIENTED_EDGE('',*,*,#327,.F.);
#430=ORIENTED_EDGE('',*,*,#328,.T.);
#431=ORIENTED_EDGE('',*,*,#322,.F.);
#432=ORIENTED_EDGE('',*,*,#328,.F.);
#433=ORIENTED_EDGE('',*,*,#329,.F.);
#434=ORIENTED_EDGE('',*,*,#330,.F.);
#435=ORIENTED_EDGE('',*,*,#312,.F.);
#436=ORIENTED_EDGE('',*,*,#313,.F.);
#437=ORIENTED_EDGE('',*,*,#330,.T.);
#438=ORIENTED_EDGE('',*,*,#331,.F.);
#439=ORIENTED_EDGE('',*,*,#332,.F.);
#440=ORIENTED_EDGE('',*,*,#307,.T.);
#441=ORIENTED_EDGE('',*,*,#297,.T.);
#442=ORIENTED_EDGE('',*,*,#303,.T.);
#443=ORIENTED_EDGE('',*,*,#316,.F.);
#444=ORIENTED_EDGE('',*,*,#323,.F.);
#445=ORIENTED_EDGE('',*,*,#276,.T.);
#446=ORIENTED_EDGE('',*,*,#306,.T.);
#447=ORIENTED_EDGE('',*,*,#333,.F.);
#448=ORIENTED_EDGE('',*,*,#334,.T.);
#449=ORIENTED_EDGE('',*,*,#324,.F.);
#450=ORIENTED_EDGE('',*,*,#334,.F.);
#451=ORIENTED_EDGE('',*,*,#335,.F.);
#452=ORIENTED_EDGE('',*,*,#336,.F.);
#453=ORIENTED_EDGE('',*,*,#318,.F.);
#454=ORIENTED_EDGE('',*,*,#310,.F.);
#455=ORIENTED_EDGE('',*,*,#336,.T.);
#456=ORIENTED_EDGE('',*,*,#337,.F.);
#457=ORIENTED_EDGE('',*,*,#304,.T.);
#458=ORIENTED_EDGE('',*,*,#283,.F.);
#459=ORIENTED_EDGE('',*,*,#289,.T.);
#460=ORIENTED_EDGE('',*,*,#315,.T.);
#461=ORIENTED_EDGE('',*,*,#338,.T.);
#462=ORIENTED_EDGE('',*,*,#339,.F.);
#463=ORIENTED_EDGE('',*,*,#338,.F.);
#464=ORIENTED_EDGE('',*,*,#339,.T.);
#465=ORIENTED_EDGE('',*,*,#340,.F.);
#466=ORIENTED_EDGE('',*,*,#340,.T.);
#467=ORIENTED_EDGE('',*,*,#341,.T.);
#468=ORIENTED_EDGE('',*,*,#342,.F.);
#469=ORIENTED_EDGE('',*,*,#341,.F.);
#470=ORIENTED_EDGE('',*,*,#343,.F.);
#471=ORIENTED_EDGE('',*,*,#342,.T.);
#472=ORIENTED_EDGE('',*,*,#343,.T.);
#473=ORIENTED_EDGE('',*,*,#344,.T.);
#474=ORIENTED_EDGE('',*,*,#345,.F.);
#475=ORIENTED_EDGE('',*,*,#344,.F.);
#476=ORIENTED_EDGE('',*,*,#345,.T.);
#477=ORIENTED_EDGE('',*,*,#346,.T.);
#478=ORIENTED_EDGE('',*,*,#347,.F.);
#479=ORIENTED_EDGE('',*,*,#346,.F.);
#480=ORIENTED_EDGE('',*,*,#348,.F.);
#481=ORIENTED_EDGE('',*,*,#347,.T.);
#482=ORIENTED_EDGE('',*,*,#349,.F.);
#483=ORIENTED_EDGE('',*,*,#350,.T.);
#484=ORIENTED_EDGE('',*,*,#348,.T.);
#485=ORIENTED_EDGE('',*,*,#350,.F.);
#486=ORIENTED_EDGE('',*,*,#351,.F.);
#487=ORIENTED_EDGE('',*,*,#352,.T.);
#488=ORIENTED_EDGE('',*,*,#326,.T.);
#489=ORIENTED_EDGE('',*,*,#308,.T.);
#490=ORIENTED_EDGE('',*,*,#332,.T.);
#491=ORIENTED_EDGE('',*,*,#353,.T.);
#492=ORIENTED_EDGE('',*,*,#349,.T.);
#493=ORIENTED_EDGE('',*,*,#353,.F.);
#494=ORIENTED_EDGE('',*,*,#331,.T.);
#495=ORIENTED_EDGE('',*,*,#329,.T.);
#496=ORIENTED_EDGE('',*,*,#327,.T.);
#497=ORIENTED_EDGE('',*,*,#352,.F.);
#498=ORIENTED_EDGE('',*,*,#335,.T.);
#499=ORIENTED_EDGE('',*,*,#333,.T.);
#500=ORIENTED_EDGE('',*,*,#305,.T.);
#501=ORIENTED_EDGE('',*,*,#337,.T.);
#502=ORIENTED_EDGE('',*,*,#354,.F.);
#503=ORIENTED_EDGE('',*,*,#355,.T.);
#504=ORIENTED_EDGE('',*,*,#351,.T.);
#505=ORIENTED_EDGE('',*,*,#355,.F.);
#506=ORIENTED_EDGE('',*,*,#354,.T.);
#507=ORIENTED_EDGE('',*,*,#279,.T.);
#508=ORIENTED_EDGE('',*,*,#356,.F.);
#509=ORIENTED_EDGE('',*,*,#299,.T.);
#510=ORIENTED_EDGE('',*,*,#295,.T.);
#511=ORIENTED_EDGE('',*,*,#293,.T.);
#512=ORIENTED_EDGE('',*,*,#319,.F.);
#513=ORIENTED_EDGE('',*,*,#285,.T.);
#514=ORIENTED_EDGE('',*,*,#281,.T.);
#515=ORIENTED_EDGE('',*,*,#278,.T.);
#516=ORIENTED_EDGE('',*,*,#325,.F.);
#517=ORIENTED_EDGE('',*,*,#300,.T.);
#518=ORIENTED_EDGE('',*,*,#356,.T.);
#519=PLANE('',#579);
#520=PLANE('',#583);
#521=PLANE('',#585);
#522=PLANE('',#589);
#523=PLANE('',#591);
#524=PLANE('',#592);
#525=PLANE('',#611);
#526=PLANE('',#614);
#527=PLANE('',#615);
#528=PLANE('',#618);
#529=PLANE('',#620);
#530=PLANE('',#621);
#531=PLANE('',#625);
#532=PLANE('',#629);
#533=PLANE('',#635);
#534=PLANE('',#643);
#535=ADVANCED_FACE('',(#71),#519,.T.);
#536=ADVANCED_FACE('',(#72),#63,.F.);
#537=ADVANCED_FACE('',(#73),#520,.F.);
#538=ADVANCED_FACE('',(#74),#521,.F.);
#539=ADVANCED_FACE('',(#75),#64,.F.);
#540=ADVANCED_FACE('',(#76),#522,.T.);
#541=ADVANCED_FACE('',(#77),#523,.F.);
#542=ADVANCED_FACE('',(#78),#524,.T.);
#543=ADVANCED_FACE('',(#79),#25,.F.);
#544=ADVANCED_FACE('',(#80),#20,.F.);
#545=ADVANCED_FACE('',(#81),#65,.F.);
#546=ADVANCED_FACE('',(#82),#66,.F.);
#547=ADVANCED_FACE('',(#83),#525,.F.);
#548=ADVANCED_FACE('',(#84),#526,.F.);
#549=ADVANCED_FACE('',(#85),#527,.F.);
#550=ADVANCED_FACE('',(#86),#528,.F.);
#551=ADVANCED_FACE('',(#87),#529,.T.);
#552=ADVANCED_FACE('',(#88),#530,.F.);
#553=ADVANCED_FACE('',(#89),#67,.F.);
#554=ADVANCED_FACE('',(#90,#15),#531,.T.);
#555=ADVANCED_FACE('',(#91),#68,.F.);
#556=ADVANCED_FACE('',(#92,#16),#532,.T.);
#557=ADVANCED_FACE('',(#93),#21,.F.);
#558=ADVANCED_FACE('',(#94),#69,.F.);
#559=ADVANCED_FACE('',(#95,#17),#533,.T.);
#560=ADVANCED_FACE('',(#96),#22,.T.);
#561=ADVANCED_FACE('',(#97,#18),#70,.T.);
#562=ADVANCED_FACE('',(#98),#23,.T.);
#563=ADVANCED_FACE('',(#99,#19),#534,.T.);
#564=ADVANCED_FACE('',(#100),#24,.F.);
#565=CLOSED_SHELL('',(#535,#536,#537,#538,#539,#540,#541,#542,#543,#544,
#545,#546,#547,#548,#549,#550,#551,#552,#553,#554,#555,#556,#557,#558,#559,
#560,#561,#562,#563,#564));
#566=DERIVED_UNIT_ELEMENT(#568,1.);
#567=DERIVED_UNIT_ELEMENT(#995,-3.);
#568=(
MASS_UNIT()
NAMED_UNIT(*)
SI_UNIT(.KILO.,.GRAM.)
);
#569=DERIVED_UNIT((#566,#567));
#570=MEASURE_REPRESENTATION_ITEM('density measure',
POSITIVE_RATIO_MEASURE(7850.),#569);
#571=PROPERTY_DEFINITION_REPRESENTATION(#576,#573);
#572=PROPERTY_DEFINITION_REPRESENTATION(#577,#574);
#573=REPRESENTATION('material name',(#575),#992);
#574=REPRESENTATION('density',(#570),#992);
#575=DESCRIPTIVE_REPRESENTATION_ITEM('Steel','Steel');
#576=PROPERTY_DEFINITION('material property','material name',#1002);
#577=PROPERTY_DEFINITION('material property','density of part',#1002);
#578=AXIS2_PLACEMENT_3D('',#826,#646,#647);
#579=AXIS2_PLACEMENT_3D('',#827,#648,#649);
#580=AXIS2_PLACEMENT_3D('',#838,#655,#656);
#581=AXIS2_PLACEMENT_3D('',#840,#657,#658);
#582=AXIS2_PLACEMENT_3D('',#844,#660,#661);
#583=AXIS2_PLACEMENT_3D('',#846,#663,#664);
#584=AXIS2_PLACEMENT_3D('',#854,#668,#669);
#585=AXIS2_PLACEMENT_3D('',#856,#671,#672);
#586=AXIS2_PLACEMENT_3D('',#867,#678,#679);
#587=AXIS2_PLACEMENT_3D('',#869,#680,#681);
#588=AXIS2_PLACEMENT_3D('',#873,#683,#684);
#589=AXIS2_PLACEMENT_3D('',#875,#686,#687);
#590=AXIS2_PLACEMENT_3D('',#883,#691,#692);
#591=AXIS2_PLACEMENT_3D('',#885,#694,#695);
#592=AXIS2_PLACEMENT_3D('',#891,#699,#700);
#593=AXIS2_PLACEMENT_3D('',#897,#704,#705);
#594=AXIS2_PLACEMENT_3D('',#899,#706,#707);
#595=AXIS2_PLACEMENT_3D('',#901,#708,#709);
#596=AXIS2_PLACEMENT_3D('',#903,#710,#711);
#597=AXIS2_PLACEMENT_3D('',#905,#712,#713);
#598=AXIS2_PLACEMENT_3D('',#907,#714,#715);
#599=AXIS2_PLACEMENT_3D('',#908,#716,#717);
#600=AXIS2_PLACEMENT_3D('',#909,#718,#719);
#601=AXIS2_PLACEMENT_3D('',#911,#720,#721);
#602=AXIS2_PLACEMENT_3D('',#912,#722,#723);
#603=AXIS2_PLACEMENT_3D('',#913,#724,#725);
#604=AXIS2_PLACEMENT_3D('',#914,#726,#727);
#605=AXIS2_PLACEMENT_3D('',#915,#728,#729);
#606=AXIS2_PLACEMENT_3D('',#916,#730,#731);
#607=AXIS2_PLACEMENT_3D('',#918,#732,#733);
#608=AXIS2_PLACEMENT_3D('',#920,#735,#736);
#609=AXIS2_PLACEMENT_3D('',#922,#737,#738);
#610=AXIS2_PLACEMENT_3D('',#924,#740,#741);
#611=AXIS2_PLACEMENT_3D('',#925,#742,#743);
#612=AXIS2_PLACEMENT_3D('',#927,#744,#745);
#613=AXIS2_PLACEMENT_3D('',#929,#746,#747);
#614=AXIS2_PLACEMENT_3D('',#931,#749,#750);
#615=AXIS2_PLACEMENT_3D('',#935,#753,#754);
#616=AXIS2_PLACEMENT_3D('',#937,#755,#756);
#617=AXIS2_PLACEMENT_3D('',#938,#757,#758);
#618=AXIS2_PLACEMENT_3D('',#939,#759,#760);
#619=AXIS2_PLACEMENT_3D('',#941,#761,#762);
#620=AXIS2_PLACEMENT_3D('',#943,#764,#765);
#621=AXIS2_PLACEMENT_3D('',#947,#768,#769);
#622=AXIS2_PLACEMENT_3D('',#948,#770,#771);
#623=AXIS2_PLACEMENT_3D('',#949,#772,#773);
#624=AXIS2_PLACEMENT_3D('',#952,#775,#776);
#625=AXIS2_PLACEMENT_3D('',#953,#777,#778);
#626=AXIS2_PLACEMENT_3D('',#955,#779,#780);
#627=AXIS2_PLACEMENT_3D('',#956,#781,#782);
#628=AXIS2_PLACEMENT_3D('',#959,#784,#785);
#629=AXIS2_PLACEMENT_3D('',#960,#786,#787);
#630=AXIS2_PLACEMENT_3D('',#962,#788,#789);
#631=AXIS2_PLACEMENT_3D('',#963,#790,#791);
#632=AXIS2_PLACEMENT_3D('',#966,#793,#794);
#633=AXIS2_PLACEMENT_3D('',#967,#795,#796);
#634=AXIS2_PLACEMENT_3D('',#970,#798,#799);
#635=AXIS2_PLACEMENT_3D('',#971,#800,#801);
#636=AXIS2_PLACEMENT_3D('',#973,#802,#803);
#637=AXIS2_PLACEMENT_3D('',#974,#804,#805);
#638=AXIS2_PLACEMENT_3D('',#976,#806,#807);
#639=AXIS2_PLACEMENT_3D('',#978,#809,#810);
#640=AXIS2_PLACEMENT_3D('',#980,#811,#812);
#641=AXIS2_PLACEMENT_3D('',#983,#815,#816);
#642=AXIS2_PLACEMENT_3D('',#985,#817,#818);
#643=AXIS2_PLACEMENT_3D('',#987,#820,#821);
#644=AXIS2_PLACEMENT_3D('',#988,#822,#823);
#645=AXIS2_PLACEMENT_3D('',#989,#824,#825);
#646=DIRECTION('axis',(0.,0.,1.));
#647=DIRECTION('refdir',(1.,0.,0.));
#648=DIRECTION('center_axis',(-0.250380004054441,0.968147640378108,1.38777878078145E-16));
#649=DIRECTION('ref_axis',(3.47472056758726E-17,-1.34357475198036E-16,1.));
#650=DIRECTION('',(0.968147640378108,0.250380004054441,0.));
#651=DIRECTION('',(0.,0.,-1.));
#652=DIRECTION('',(-0.684583761701115,-0.177045398740411,-0.707106781186548));
#653=DIRECTION('',(-0.968147640378108,-0.250380004054441,0.));
#654=DIRECTION('',(0.,0.,1.));
#655=DIRECTION('center_axis',(0.,0.,1.));
#656=DIRECTION('ref_axis',(0.863835505204396,0.503773977045526,0.));
#657=DIRECTION('center_axis',(0.,0.,-1.));
#658=DIRECTION('ref_axis',(0.863835505204396,0.503773977045526,0.));
#659=DIRECTION('',(0.,0.,-1.));
#660=DIRECTION('center_axis',(0.,0.,-1.));
#661=DIRECTION('ref_axis',(0.863835505204395,0.503773977045527,0.));
#662=DIRECTION('',(0.,0.,-1.));
#663=DIRECTION('center_axis',(-0.719339800338651,0.694658370458997,1.38777878078145E-16));
#664=DIRECTION('ref_axis',(9.98284511081541E-17,-9.64032146415213E-17,1.));
#665=DIRECTION('',(0.694658370458997,0.719339800338651,0.));
#666=DIRECTION('',(0.491197644359554,0.508650050796837,0.707106781186548));
#667=DIRECTION('',(0.,0.,1.));
#668=DIRECTION('center_axis',(0.719339800338651,-0.694658370458997,-1.38777878078145E-16));
#669=DIRECTION('ref_axis',(0.694658370458997,0.719339800338651,0.));
#670=DIRECTION('',(-0.694658370458998,-0.719339800338651,0.));
#671=DIRECTION('center_axis',(-0.250380004054441,0.968147640378108,-1.38777878078145E-16));
#672=DIRECTION('ref_axis',(-3.47472056758726E-17,1.34357475198036E-16,1.));
#673=DIRECTION('',(-0.968147640378108,-0.250380004054441,0.));
#674=DIRECTION('',(0.,0.,-1.));
#675=DIRECTION('',(0.684583761701115,0.177045398740411,-0.707106781186548));
#676=DIRECTION('',(0.968147640378108,0.250380004054441,0.));
#677=DIRECTION('',(0.,0.,1.));
#678=DIRECTION('center_axis',(0.,0.,1.));
#679=DIRECTION('ref_axis',(-0.863835505204396,-0.503773977045526,0.));
#680=DIRECTION('center_axis',(0.,0.,-1.));
#681=DIRECTION('ref_axis',(-0.863835505204396,-0.503773977045526,0.));
#682=DIRECTION('',(0.,0.,-1.));
#683=DIRECTION('center_axis',(0.,0.,1.));
#684=DIRECTION('ref_axis',(-0.863835505204396,-0.503773977045526,0.));
#685=DIRECTION('',(0.,0.,-1.));
#686=DIRECTION('center_axis',(-0.719339800338651,0.694658370458997,-1.38777878078145E-16));
#687=DIRECTION('ref_axis',(-9.98284511081541E-17,9.64032146415213E-17,1.));
#688=DIRECTION('',(-0.694658370458997,-0.719339800338651,0.));
#689=DIRECTION('',(-0.491197644359554,-0.508650050796837,0.707106781186548));
#690=DIRECTION('',(0.,0.,1.));
#691=DIRECTION('center_axis',(-0.719339800338651,0.694658370458997,-1.38777878078145E-16));
#692=DIRECTION('ref_axis',(-0.694658370458997,-0.719339800338651,0.));
#693=DIRECTION('',(0.694658370458998,0.719339800338651,0.));
#694=DIRECTION('center_axis',(-0.250380004054441,0.968147640378108,0.));
#695=DIRECTION('ref_axis',(0.968147640378108,0.250380004054441,0.));
#696=DIRECTION('',(-0.968147640378108,-0.250380004054441,0.));
#697=DIRECTION('',(0.,0.,-1.));
#698=DIRECTION('',(0.968147640378108,0.250380004054441,0.));
#699=DIRECTION('center_axis',(-0.250380004054441,0.968147640378108,0.));
#700=DIRECTION('ref_axis',(0.968147640378108,0.250380004054441,0.));
#701=DIRECTION('',(0.968147640378108,0.250380004054441,0.));
#702=DIRECTION('',(0.,0.,-1.));
#703=DIRECTION('',(-0.968147640378108,-0.250380004054441,0.));
#704=DIRECTION('center_axis',(0.,0.,1.));
#705=DIRECTION('ref_axis',(1.,0.,0.));
#706=DIRECTION('center_axis',(0.,0.,1.));
#707=DIRECTION('ref_axis',(1.,0.,0.));
#708=DIRECTION('center_axis',(0.,0.,1.));
#709=DIRECTION('ref_axis',(1.,0.,0.));
#710=DIRECTION('center_axis',(-0.250380004054441,-0.968147640378108,0.));
#711=DIRECTION('ref_axis',(-0.968147640378108,0.250380004054441,0.));
#712=DIRECTION('center_axis',(0.,0.,1.));
#713=DIRECTION('ref_axis',(1.,0.,0.));
#714=DIRECTION('center_axis',(1.22464679914735E-16,-1.,0.));
#715=DIRECTION('ref_axis',(-1.,-1.22464679914735E-16,0.));
#716=DIRECTION('center_axis',(0.,0.,1.));
#717=DIRECTION('ref_axis',(1.,0.,0.));
#718=DIRECTION('center_axis',(0.,0.,1.));
#719=DIRECTION('ref_axis',(1.,0.,0.));
#720=DIRECTION('center_axis',(0.,0.,1.));
#721=DIRECTION('ref_axis',(1.,0.,0.));
#722=DIRECTION('center_axis',(0.250380004054441,0.968147640378108,0.));
#723=DIRECTION('ref_axis',(0.968147640378108,-0.250380004054441,0.));
#724=DIRECTION('center_axis',(0.,0.,1.));
#725=DIRECTION('ref_axis',(-0.503773977045526,0.863835505204396,0.));
#726=DIRECTION('center_axis',(0.,0.,1.));
#727=DIRECTION('ref_axis',(1.,0.,0.));
#728=DIRECTION('center_axis',(0.,0.,1.));
#729=DIRECTION('ref_axis',(1.,0.,0.));
#730=DIRECTION('center_axis',(0.,0.,1.));
#731=DIRECTION('ref_axis',(-0.503773977045526,0.863835505204396,0.));
#732=DIRECTION('center_axis',(0.,0.,-1.));
#733=DIRECTION('ref_axis',(1.,0.,0.));
#734=DIRECTION('',(0.,0.,-1.));
#735=DIRECTION('center_axis',(0.,0.,1.));
#736=DIRECTION('ref_axis',(1.,0.,0.));
#737=DIRECTION('center_axis',(0.,0.,-1.));
#738=DIRECTION('ref_axis',(1.,0.,0.));
#739=DIRECTION('',(0.,0.,-1.));
#740=DIRECTION('center_axis',(0.,0.,1.));
#741=DIRECTION('ref_axis',(1.,0.,0.));
#742=DIRECTION('center_axis',(0.,0.,1.));
#743=DIRECTION('ref_axis',(1.,0.,0.));
#744=DIRECTION('center_axis',(0.,0.,1.));
#745=DIRECTION('ref_axis',(1.,0.,0.));
#746=DIRECTION('center_axis',(0.,0.,1.));
#747=DIRECTION('ref_axis',(1.,0.,0.));
#748=DIRECTION('',(0.968147640378108,-0.250380004054441,0.));
#749=DIRECTION('center_axis',(0.250380004054441,0.968147640378108,0.));
#750=DIRECTION('ref_axis',(0.968147640378108,-0.250380004054441,0.));
#751=DIRECTION('',(0.,0.,1.));
#752=DIRECTION('',(-0.968147640378108,0.250380004054441,0.));
#753=DIRECTION('center_axis',(0.,0.,-1.));
#754=DIRECTION('ref_axis',(-1.,0.,0.));
#755=DIRECTION('center_axis',(0.,0.,-1.));
#756=DIRECTION('ref_axis',(1.,0.,0.));
#757=DIRECTION('center_axis',(0.,0.,-1.));
#758=DIRECTION('ref_axis',(1.,0.,0.));
#759=DIRECTION('center_axis',(0.,0.,1.));
#760=DIRECTION('ref_axis',(1.,0.,0.));
#761=DIRECTION('center_axis',(0.,0.,1.));
#762=DIRECTION('ref_axis',(1.,0.,0.));
#763=DIRECTION('',(-0.968147640378108,0.250380004054441,0.));
#764=DIRECTION('center_axis',(0.250380004054441,0.968147640378108,0.));
#765=DIRECTION('ref_axis',(0.968147640378108,-0.250380004054441,0.));
#766=DIRECTION('',(0.,0.,1.));
#767=DIRECTION('',(0.968147640378108,-0.250380004054441,0.));
#768=DIRECTION('center_axis',(0.,0.,-1.));
#769=DIRECTION('ref_axis',(-1.,0.,0.));
#770=DIRECTION('center_axis',(0.,0.,-1.));
#771=DIRECTION('ref_axis',(1.,0.,0.));
#772=DIRECTION('center_axis',(0.,0.,1.));
#773=DIRECTION('ref_axis',(1.,0.,0.));
#774=DIRECTION('',(0.,0.,-1.));
#775=DIRECTION('center_axis',(0.,0.,1.));
#776=DIRECTION('ref_axis',(1.,0.,0.));
#777=DIRECTION('center_axis',(0.,0.,1.));
#778=DIRECTION('ref_axis',(1.,0.,0.));
#779=DIRECTION('center_axis',(0.,0.,1.));
#780=DIRECTION('ref_axis',(1.,0.,0.));
#781=DIRECTION('center_axis',(0.,0.,1.));
#782=DIRECTION('ref_axis',(1.,0.,0.));
#783=DIRECTION('',(0.,0.,-1.));
#784=DIRECTION('center_axis',(0.,0.,1.));
#785=DIRECTION('ref_axis',(1.,0.,0.));
#786=DIRECTION('center_axis',(0.,0.,-1.));
#787=DIRECTION('ref_axis',(-1.,0.,0.));
#788=DIRECTION('center_axis',(0.,0.,1.));
#789=DIRECTION('ref_axis',(1.,0.,0.));
#790=DIRECTION('center_axis',(0.,0.,-1.));
#791=DIRECTION('ref_axis',(1.,0.,0.));
#792=DIRECTION('',(-0.707106781186548,-8.65956056235494E-17,-0.707106781186547));
#793=DIRECTION('center_axis',(0.,0.,1.));
#794=DIRECTION('ref_axis',(1.,0.,0.));
#795=DIRECTION('center_axis',(0.,0.,1.));
#796=DIRECTION('ref_axis',(1.,0.,0.));
#797=DIRECTION('',(0.,0.,-1.));
#798=DIRECTION('center_axis',(0.,0.,1.));
#799=DIRECTION('ref_axis',(1.,0.,0.));
#800=DIRECTION('center_axis',(0.,0.,-1.));
#801=DIRECTION('ref_axis',(-1.,0.,0.));
#802=DIRECTION('center_axis',(0.,0.,1.));
#803=DIRECTION('ref_axis',(1.,0.,0.));
#804=DIRECTION('center_axis',(0.,0.,1.));
#805=DIRECTION('ref_axis',(1.,0.,0.));
#806=DIRECTION('center_axis',(0.,0.,1.));
#807=DIRECTION('ref_axis',(1.,0.,0.));
#808=DIRECTION('',(0.707106781186546,8.65956056235492E-17,-0.707106781186549));
#809=DIRECTION('center_axis',(0.,0.,1.));
#810=DIRECTION('ref_axis',(1.,0.,0.));
#811=DIRECTION('center_axis',(0.,0.,1.));
#812=DIRECTION('ref_axis',(1.,0.,0.));
#813=DIRECTION('',(0.,0.,-1.));
#814=DIRECTION('',(0.,0.,-1.));
#815=DIRECTION('center_axis',(0.,0.,-1.));
#816=DIRECTION('ref_axis',(1.,0.,0.));
#817=DIRECTION('center_axis',(0.,0.,1.));
#818=DIRECTION('ref_axis',(1.,0.,0.));
#819=DIRECTION('',(-0.707106781186548,-8.65956056235493E-17,-0.707106781186548));
#820=DIRECTION('center_axis',(0.,0.,1.));
#821=DIRECTION('ref_axis',(1.,0.,0.));
#822=DIRECTION('center_axis',(0.,0.,1.));
#823=DIRECTION('ref_axis',(1.,0.,0.));
#824=DIRECTION('center_axis',(0.,0.,1.));
#825=DIRECTION('ref_axis',(1.,0.,0.));
#826=CARTESIAN_POINT('',(0.,0.,0.));
#827=CARTESIAN_POINT('Origin',(30.9807244920994,8.01216012974213,40.15));
#828=CARTESIAN_POINT('',(30.9807244920994,8.01216012974212,42.15));
#829=CARTESIAN_POINT('',(32.9170197728557,8.51292013785101,42.15));
#830=CARTESIAN_POINT('',(36.7896103343681,9.51444015406877,42.15));
#831=CARTESIAN_POINT('',(30.9807244920994,8.01216012974212,45.65));
#832=CARTESIAN_POINT('',(30.9807244920994,8.01216012974213,40.21));
#833=CARTESIAN_POINT('',(31.4647983122885,8.13735013176935,46.15));
#834=CARTESIAN_POINT('',(31.222761402194,8.07475513075574,45.9));
#835=CARTESIAN_POINT('',(32.9170197728557,8.51292013785101,46.15));
#836=CARTESIAN_POINT('',(30.7216473665573,7.94515822937255,46.15));
#837=CARTESIAN_POINT('',(32.9170197728557,8.51292013785101,48.15));
#838=CARTESIAN_POINT('Origin',(0.,0.,40.15));
#839=CARTESIAN_POINT('',(23.6183845956059,24.4575532115141,46.15));
#840=CARTESIAN_POINT('Origin',(0.,0.,46.15));
#841=CARTESIAN_POINT('',(23.6183845956059,24.4575532115141,32.15));
#842=CARTESIAN_POINT('',(23.6183845956059,24.4575532115141,48.15));
#843=CARTESIAN_POINT('',(32.9170197728557,8.512920137851,32.15));
#844=CARTESIAN_POINT('Origin',(1.77635683940025E-14,-3.10862446895044E-14,
32.15));
#845=CARTESIAN_POINT('',(32.9170197728557,8.51292013785101,40.15));
#846=CARTESIAN_POINT('Origin',(22.2290678546879,23.0188736108368,40.15));
#847=CARTESIAN_POINT('',(22.5763970399174,23.3785435110062,46.15));
#848=CARTESIAN_POINT('',(18.9559755166361,19.6294872749486,46.15));
#849=CARTESIAN_POINT('',(22.2290678546879,23.0188736108368,45.65));
#850=CARTESIAN_POINT('',(22.4027324473027,23.1987085609215,45.9));
#851=CARTESIAN_POINT('',(22.2290678546879,23.0188736108368,34.77));
#852=CARTESIAN_POINT('',(22.2290678546879,23.0188736108368,40.21));
#853=CARTESIAN_POINT('',(21.5500500707744,22.3157301119914,32.15));
#854=CARTESIAN_POINT('Origin',(19.4504343728519,20.1415144094822,34.77));
#855=CARTESIAN_POINT('',(23.6183845956059,24.4575532115141,32.15));
#856=CARTESIAN_POINT('Origin',(-30.9807244920995,-8.01216012974212,40.15));
#857=CARTESIAN_POINT('',(-30.9807244920994,-8.01216012974213,42.15));
#858=CARTESIAN_POINT('',(-32.9170197728557,-8.512920137851,42.15));
#859=CARTESIAN_POINT('',(-36.7896103343681,-9.51444015406877,42.15));
#860=CARTESIAN_POINT('',(-30.9807244920994,-8.01216012974212,45.65));
#861=CARTESIAN_POINT('',(-30.9807244920994,-8.01216012974212,40.21));
#862=CARTESIAN_POINT('',(-31.4647983122885,-8.13735013176934,46.15));
#863=CARTESIAN_POINT('',(-31.222761402194,-8.07475513075573,45.9));
#864=CARTESIAN_POINT('',(-32.9170197728557,-8.512920137851,46.15));
#865=CARTESIAN_POINT('',(-0.259077125542135,-0.0670019003695739,46.15));
#866=CARTESIAN_POINT('',(-32.9170197728557,-8.512920137851,48.15));
#867=CARTESIAN_POINT('Origin',(0.,0.,40.15));
#868=CARTESIAN_POINT('',(-23.6183845956059,-24.4575532115141,46.15));
#869=CARTESIAN_POINT('Origin',(0.,0.,46.15));
#870=CARTESIAN_POINT('',(-23.6183845956059,-24.4575532115141,32.15));
#871=CARTESIAN_POINT('',(-23.6183845956059,-24.4575532115141,48.15));
#872=CARTESIAN_POINT('',(-32.9170197728557,-8.512920137851,32.15));
#873=CARTESIAN_POINT('Origin',(1.46549439250521E-13,7.99360577730113E-14,
32.15));
#874=CARTESIAN_POINT('',(-32.9170197728557,-8.51292013785101,40.15));
#875=CARTESIAN_POINT('Origin',(-22.2290678546879,-23.0188736108368,40.15));
#876=CARTESIAN_POINT('',(-22.5763970399174,-23.3785435110062,46.15));
#877=CARTESIAN_POINT('',(-3.27309233805177,-3.38938633588826,46.15));
#878=CARTESIAN_POINT('',(-22.2290678546879,-23.0188736108368,45.65));
#879=CARTESIAN_POINT('',(-22.4027324473027,-23.1987085609215,45.9));
#880=CARTESIAN_POINT('',(-22.2290678546879,-23.0188736108368,34.77));
#881=CARTESIAN_POINT('',(-22.2290678546879,-23.0188736108368,40.21));
#882=CARTESIAN_POINT('',(-21.5500500707744,-22.3157301119915,32.15));
#883=CARTESIAN_POINT('Origin',(-19.4504343728519,-20.1415144094822,34.77));
#884=CARTESIAN_POINT('',(-23.6183845956059,-24.4575532115141,32.15));
#885=CARTESIAN_POINT('Origin',(32.9170197728557,8.51292013785101,37.15));
#886=CARTESIAN_POINT('',(35.3373888738009,9.13887014798711,32.15));
#887=CARTESIAN_POINT('',(29.0444292113432,7.51140012163324,32.15));
#888=CARTESIAN_POINT('',(35.3373888738009,9.13887014798711,42.15));
#889=CARTESIAN_POINT('',(35.3373888738009,9.13887014798711,23.075));
#890=CARTESIAN_POINT('',(36.7896103343681,9.51444015406877,42.15));
#891=CARTESIAN_POINT('Origin',(-32.9170197728557,-8.51292013785101,37.15));
#892=CARTESIAN_POINT('',(-35.3373888738009,-9.13887014798711,32.15));
#893=CARTESIAN_POINT('',(-29.0444292113432,-7.51140012163324,32.15));
#894=CARTESIAN_POINT('',(-35.3373888738009,-9.13887014798711,42.15));
#895=CARTESIAN_POINT('',(-35.3373888738009,-9.13887014798711,23.075));
#896=CARTESIAN_POINT('',(-36.7896103343681,-9.51444015406877,42.15));
#897=CARTESIAN_POINT('Origin',(0.,0.,34.77));
#898=CARTESIAN_POINT('',(30.034375188288,-7.76741755883353,32.15));
#899=CARTESIAN_POINT('Origin',(0.,0.,32.15));
#900=CARTESIAN_POINT('',(-30.9807244920994,8.01216012974213,34.77));
#901=CARTESIAN_POINT('Origin',(0.,0.,34.77));
#902=CARTESIAN_POINT('',(-30.034375188288,7.76741755883353,32.15));
#903=CARTESIAN_POINT('Origin',(-27.108133930587,7.01064011352436,34.77));
#904=CARTESIAN_POINT('',(-31.0225155086451,-3.79916243191613E-15,32.15));
#905=CARTESIAN_POINT('Origin',(0.,0.,32.15));
#906=CARTESIAN_POINT('',(-31.,-3.7964050773568E-15,32.1242486889354));
#907=CARTESIAN_POINT('Origin',(-28.,-3.42901103761259E-15,34.77));
#908=CARTESIAN_POINT('Origin',(0.,0.,32.1242486889354));
#909=CARTESIAN_POINT('Origin',(0.,0.,32.15));
#910=CARTESIAN_POINT('',(30.9807244920994,-8.01216012974213,34.77));
#911=CARTESIAN_POINT('Origin',(0.,0.,34.77));
#912=CARTESIAN_POINT('Origin',(27.108133930587,-7.01064011352436,34.77));
#913=CARTESIAN_POINT('Origin',(0.,0.,45.9));
#914=CARTESIAN_POINT('Origin',(0.,0.,46.15));
#915=CARTESIAN_POINT('Origin',(0.,0.,45.65));
#916=CARTESIAN_POINT('Origin',(0.,0.,40.21));
#917=CARTESIAN_POINT('',(-30.9807244920994,8.01216012974213,42.15));
#918=CARTESIAN_POINT('Origin',(0.,0.,42.15));
#919=CARTESIAN_POINT('',(-30.9807244920994,8.01216012974213,40.21));
#920=CARTESIAN_POINT('Origin',(0.,0.,40.21));
#921=CARTESIAN_POINT('',(30.9807244920994,-8.01216012974212,42.15));
#922=CARTESIAN_POINT('Origin',(0.,0.,42.15));
#923=CARTESIAN_POINT('',(30.9807244920994,-8.01216012974213,40.21));
#924=CARTESIAN_POINT('Origin',(0.,0.,45.65));
#925=CARTESIAN_POINT('Origin',(-30.,0.,42.15));
#926=CARTESIAN_POINT('',(-36.5,-4.46996081688784E-15,42.15));
#927=CARTESIAN_POINT('Origin',(0.,0.,42.15));
#928=CARTESIAN_POINT('',(-35.3373888738009,9.13887014798711,42.15));
#929=CARTESIAN_POINT('Origin',(0.,0.,42.15));
#930=CARTESIAN_POINT('',(-36.7896103343681,9.51444015406877,42.15));
#931=CARTESIAN_POINT('Origin',(-32.9170197728557,8.51292013785101,37.15));
#932=CARTESIAN_POINT('',(-35.3373888738009,9.13887014798711,32.15));
#933=CARTESIAN_POINT('',(-35.3373888738009,9.13887014798711,23.075));
#934=CARTESIAN_POINT('',(-29.0444292113432,7.51140012163324,32.15));
#935=CARTESIAN_POINT('Origin',(-38.,0.,32.15));
#936=CARTESIAN_POINT('',(-36.5,-4.46996081688784E-15,32.15));
#937=CARTESIAN_POINT('Origin',(0.,0.,32.15));
#938=CARTESIAN_POINT('Origin',(0.,0.,32.15));
#939=CARTESIAN_POINT('Origin',(30.,0.,42.15));
#940=CARTESIAN_POINT('',(35.3373888738009,-9.13887014798711,42.15));
#941=CARTESIAN_POINT('Origin',(0.,0.,42.15));
#942=CARTESIAN_POINT('',(36.7896103343681,-9.51444015406877,42.15));
#943=CARTESIAN_POINT('Origin',(32.9170197728557,-8.51292013785101,37.15));
#944=CARTESIAN_POINT('',(35.3373888738009,-9.13887014798711,32.15));
#945=CARTESIAN_POINT('',(35.3373888738009,-9.13887014798711,23.075));
#946=CARTESIAN_POINT('',(29.0444292113432,-7.51140012163324,32.15));
#947=CARTESIAN_POINT('Origin',(38.,0.,32.15));
#948=CARTESIAN_POINT('Origin',(0.,0.,32.15));
#949=CARTESIAN_POINT('Origin',(0.,0.,23.8871243444677));
#950=CARTESIAN_POINT('',(-31.,-3.7964050773568E-15,15.65));
#951=CARTESIAN_POINT('',(-31.,-3.7964050773568E-15,23.8871243444677));
#952=CARTESIAN_POINT('Origin',(0.,0.,15.65));
#953=CARTESIAN_POINT('Origin',(27.,0.,15.65));
#954=CARTESIAN_POINT('',(-27.,-3.30654635769785E-15,15.65));
#955=CARTESIAN_POINT('Origin',(0.,0.,15.65));
#956=CARTESIAN_POINT('Origin',(0.,0.,14.65));
#957=CARTESIAN_POINT('',(-27.,-3.30654635769785E-15,13.65));
#958=CARTESIAN_POINT('',(-27.,-3.30654635769785E-15,14.65));
#959=CARTESIAN_POINT('Origin',(0.,0.,13.65));
#960=CARTESIAN_POINT('Origin',(28.,0.,13.65));
#961=CARTESIAN_POINT('',(-28.,-3.42901103761259E-15,13.65));
#962=CARTESIAN_POINT('Origin',(0.,0.,13.65));
#963=CARTESIAN_POINT('Origin',(0.,0.,11.825));
#964=CARTESIAN_POINT('',(-31.65,-3.87600711930137E-15,10.));
#965=CARTESIAN_POINT('',(-29.825,-3.65250907845698E-15,11.825));
#966=CARTESIAN_POINT('Origin',(0.,0.,10.));
#967=CARTESIAN_POINT('Origin',(0.,0.,5.));
#968=CARTESIAN_POINT('',(-31.65,-3.87600711930137E-15,0.));
#969=CARTESIAN_POINT('',(-31.65,-3.87600711930137E-15,5.));
#970=CARTESIAN_POINT('Origin',(0.,0.,0.));
#971=CARTESIAN_POINT('Origin',(36.,0.,0.));
#972=CARTESIAN_POINT('',(-36.,-4.40872847693047E-15,-4.5102810375397E-16));
#973=CARTESIAN_POINT('Origin',(0.,0.,0.));
#974=CARTESIAN_POINT('Origin',(0.,0.,0.249999999999999));
#975=CARTESIAN_POINT('',(-36.5,-4.46996081688784E-15,0.499999999999999));
#976=CARTESIAN_POINT('Origin',(0.,0.,0.499999999999998));
#977=CARTESIAN_POINT('',(-36.25,-4.43934464690916E-15,0.249999999999999));
#978=CARTESIAN_POINT('Origin',(0.,0.,23.075));
#979=CARTESIAN_POINT('',(-36.5,-4.46996081688784E-15,45.65));
#980=CARTESIAN_POINT('Origin',(0.,0.,45.65));
#981=CARTESIAN_POINT('',(-36.5,-4.46996081688784E-15,23.075));
#982=CARTESIAN_POINT('',(-36.5,-4.46996081688784E-15,23.075));
#983=CARTESIAN_POINT('Origin',(0.,0.,45.9));
#984=CARTESIAN_POINT('',(-36.,-4.40872847693047E-15,46.15));
#985=CARTESIAN_POINT('Origin',(0.,0.,46.15));
#986=CARTESIAN_POINT('',(-36.25,-4.43934464690916E-15,45.9));
#987=CARTESIAN_POINT('Origin',(32.5,0.,46.15));
#988=CARTESIAN_POINT('Origin',(0.,0.,46.15));
#989=CARTESIAN_POINT('Origin',(0.,0.,45.9));
#990=UNCERTAINTY_MEASURE_WITH_UNIT(LENGTH_MEASURE(0.01),#994,
'DISTANCE_ACCURACY_VALUE',
'Maximum model space distance between geometric entities at asserted c
onnectivities');
#991=UNCERTAINTY_MEASURE_WITH_UNIT(LENGTH_MEASURE(0.01),#994,
'DISTANCE_ACCURACY_VALUE',
'Maximum model space distance between geometric entities at asserted c
onnectivities');
#992=(
GEOMETRIC_REPRESENTATION_CONTEXT(3)
GLOBAL_UNCERTAINTY_ASSIGNED_CONTEXT((#990))
GLOBAL_UNIT_ASSIGNED_CONTEXT((#994,#996,#997))
REPRESENTATION_CONTEXT('','3D')
);
#993=(
GEOMETRIC_REPRESENTATION_CONTEXT(3)
GLOBAL_UNCERTAINTY_ASSIGNED_CONTEXT((#991))
GLOBAL_UNIT_ASSIGNED_CONTEXT((#994,#996,#997))
REPRESENTATION_CONTEXT('','3D')
);
#994=(
LENGTH_UNIT()
NAMED_UNIT(*)
SI_UNIT(.MILLI.,.METRE.)
);
#995=(
LENGTH_UNIT()
NAMED_UNIT(*)
SI_UNIT($,.METRE.)
);
#996=(
NAMED_UNIT(*)
PLANE_ANGLE_UNIT()
SI_UNIT($,.RADIAN.)
);
#997=(
NAMED_UNIT(*)
SI_UNIT($,.STERADIAN.)
SOLID_ANGLE_UNIT()
);
#998=SHAPE_DEFINITION_REPRESENTATION(#999,#1000);
#999=PRODUCT_DEFINITION_SHAPE('',$,#1002);
#1000=SHAPE_REPRESENTATION('',(#578),#992);
#1001=PRODUCT_DEFINITION_CONTEXT('part definition',#1006,'design');
#1002=PRODUCT_DEFINITION('2026-09-29-11-45-03-305','(Unsaved)',#1003,#1001);
#1003=PRODUCT_DEFINITION_FORMATION('',$,#1008);
#1004=PRODUCT_RELATED_PRODUCT_CATEGORY('(Unsaved)','(Unsaved)',(#1008));
#1005=APPLICATION_PROTOCOL_DEFINITION('international standard',
'automotive_design',2009,#1006);
#1006=APPLICATION_CONTEXT(
'Core Data for Automotive Mechanical Design Process');
#1007=PRODUCT_CONTEXT('part definition',#1006,'mechanical');
#1008=PRODUCT('2026-09-29-11-45-03-305','(Unsaved)',$,(#1007));
#1009=PRESENTATION_STYLE_ASSIGNMENT((#1010));
#1010=SURFACE_STYLE_USAGE(.BOTH.,#1011);
#1011=SURFACE_SIDE_STYLE('',(#1012));
#1012=SURFACE_STYLE_FILL_AREA(#1013);
#1013=FILL_AREA_STYLE('Steel - Satin',(#1014));
#1014=FILL_AREA_STYLE_COLOUR('Steel - Satin',#1015);
#1015=COLOUR_RGB('Steel - Satin',0.627450980392157,0.627450980392157,0.627450980392157);
ENDSEC;
END-ISO-10303-21;
